<?xml version="1.0" standalone="no"?>
<!DOCTYPE svg PUBLIC "-//W3C//DTD SVG 1.1//EN" "http://www.w3.org/Graphics/SVG/1.1/DTD/svg11.dtd" >
<svg xmlns="http://www.w3.org/2000/svg" xmlns:xlink="http://www.w3.org/1999/xlink" version="1.1">
<metadata></metadata>
<defs>
<font id="so_rayextrabold" horiz-adv-x="543" >
<font-face units-per-em="1000" ascent="750" descent="-250" />
<missing-glyph horiz-adv-x="220" />
<glyph unicode="ff" horiz-adv-x="643" d="M25 341v115h66v34q0 95 55 145t142 50q62 0 109 -27q50 68 146 68q132 0 182 -132l-123 -54q-4 21 -8.5 33t-16.5 23t-30 11q-24 0 -34.5 -19.5t-10.5 -65.5v-66h106v-115h-106v-341h-141v341h-129v-341h-141v341h-66zM232 456h129v78q-18 32 -63 32q-29 0 -47.5 -20.5 t-18.5 -64.5v-25z" />
<glyph unicode="fi" horiz-adv-x="556" d="M25 341v115h66v75q0 95 55 145t142 50q139 0 197 -132l-123 -54q-6 22 -11 33.5t-20 22.5t-39 11q-26 0 -43 -20.5t-17 -64.5v-66h270v-456h-141v341h-129v-341h-141v341h-66z" />
<glyph unicode="fl" horiz-adv-x="547" d="M25 341v115h66v75q0 95 63 145t165 50q61 0 111 -20h72v-706h-141v566q-17 41 -60 41q-30 0 -49.5 -21t-19.5 -64v-66h79v-115h-79v-341h-141v341h-66z" />
<glyph unicode="ffi" horiz-adv-x="826" d="M25 341v115h66v34q0 95 55 145t142 50q62 0 111 -28q53 69 159 69q139 0 197 -132l-123 -54q-6 22 -11 33.5t-20 22.5t-39 11q-26 0 -43 -20.5t-17 -64.5v-66h270v-456h-141v341h-129v-341h-141v341h-129v-341h-141v341h-66zM232 456h129v78q-18 32 -63 32 q-29 0 -47.5 -20.5t-18.5 -64.5v-25z" />
<glyph unicode="ffl" horiz-adv-x="817" d="M25 341v115h66v34q0 95 55 145t142 50q64 0 115 -30q60 71 186 71q61 0 111 -20h72v-706h-141v566q-17 41 -60 41q-30 0 -49.5 -21t-19.5 -64v-66h79v-115h-79v-341h-141v341h-129v-341h-141v341h-66zM232 456h129v78q-18 32 -63 32q-29 0 -47.5 -20.5t-18.5 -64.5v-25z " />
<glyph unicode="fj" horiz-adv-x="547" d="M25 341v115h66v75q0 95 55 145t142 50q139 0 197 -132l-123 -54q-6 22 -11 33.5t-20 22.5t-39 11q-26 0 -43 -20.5t-17 -64.5v-66h270v-519q0 -81 -50.5 -126t-118.5 -45q-49 0 -98 25t-72 84l119 53q12 -43 44 -43q35 0 35 63v393h-129v-341h-141v341h-66z" />
<glyph unicode="fb" horiz-adv-x="860" d="M25 341v115h66v75q0 95 63 145t165 50q61 0 111 -20h72v-310q5 25 38.5 46.5t87.5 21.5q68 0 117.5 -38.5t70.5 -91.5t21 -111q0 -99 -63.5 -165t-152.5 -66q-54 0 -83.5 23.5t-35.5 52.5v-68h-141v566q-17 41 -60 41q-30 0 -49.5 -21t-19.5 -64v-66h79v-115h-79v-341 h-141v341h-66zM498 230q0 -62 26.5 -90.5t67.5 -28.5q47 0 73 35t26 86q0 49 -24.5 81t-73.5 32q-95 0 -95 -115z" />
<glyph unicode="ffb" horiz-adv-x="1130" d="M25 341v115h66v34q0 95 55 145t142 50q64 0 115 -30q60 71 186 71q61 0 111 -20h72v-310q5 25 38.5 46.5t87.5 21.5q68 0 117.5 -38.5t70.5 -91.5t21 -111q0 -99 -63.5 -165t-152.5 -66q-54 0 -83.5 23.5t-35.5 52.5v-68h-141v566q-17 41 -60 41q-30 0 -49.5 -21 t-19.5 -64v-66h79v-115h-79v-341h-141v341h-129v-341h-141v341h-66zM232 456h129v78q-18 32 -63 32q-29 0 -47.5 -20.5t-18.5 -64.5v-25zM768 230q0 -62 26.5 -90.5t67.5 -28.5q47 0 73 35t26 86q0 49 -24.5 81t-73.5 32q-95 0 -95 -115z" />
<glyph unicode="fh" horiz-adv-x="813" d="M25 341v115h66v75q0 95 63 145t165 50q61 0 111 -20h72v-307q5 21 34.5 43t88.5 22q83 0 122 -53.5t39 -162.5v-248h-141v243q0 57 -15 79.5t-48 22.5q-80 0 -80 -101v-244h-141v566q-17 41 -60 41q-30 0 -49.5 -21t-19.5 -64v-66h79v-115h-79v-341h-141v341h-66z" />
<glyph unicode="ffh" horiz-adv-x="1083" d="M25 341v115h66v34q0 95 55 145t142 50q64 0 115 -30q60 71 186 71q61 0 111 -20h72v-307q5 21 34.5 43t88.5 22q83 0 122 -53.5t39 -162.5v-248h-141v243q0 57 -15 79.5t-48 22.5q-80 0 -80 -101v-244h-141v566q-17 41 -60 41q-30 0 -49.5 -21t-19.5 -64v-66h79v-115h-79 v-341h-141v341h-129v-341h-141v341h-66zM232 456h129v78q-18 32 -63 32q-29 0 -47.5 -20.5t-18.5 -64.5v-25z" />
<glyph unicode="fk" horiz-adv-x="840" d="M25 341v115h66v75q0 95 63 145t165 50q61 0 111 -20h72v-381l156 131h192l-225 -198l178 -258h-166l-116 166l-19 -16v-150h-141v566q-17 41 -60 41q-30 0 -49.5 -21t-19.5 -64v-66h79v-115h-79v-341h-141v341h-66z" />
<glyph unicode="ffk" horiz-adv-x="1110" d="M25 341v115h66v34q0 95 55 145t142 50q64 0 115 -30q60 71 186 71q61 0 111 -20h72v-381l156 131h192l-225 -198l178 -258h-166l-116 166l-19 -16v-150h-141v566q-17 41 -60 41q-30 0 -49.5 -21t-19.5 -64v-66h79v-115h-79v-341h-141v341h-129v-341h-141v341h-66z M232 456h129v78q-18 32 -63 32q-29 0 -47.5 -20.5t-18.5 -64.5v-25z" />
<glyph unicode="ft" horiz-adv-x="656" d="M25 341v115h66v75q0 95 58.5 145t151.5 50q95 0 148 -51.5t53 -137.5v-81h135v-115h-135v-164q0 -52 8 -61q5 -5 12 -5q19 0 27 31l104 -50q-32 -100 -148 -100q-76 0 -110 45t-34 141v163h-129v-341h-141v341h-66zM232 456h129v89q0 26 -16.5 44t-50.5 18 q-27 0 -44.5 -21t-17.5 -64v-66z" />
<glyph unicode="ffj" horiz-adv-x="817" d="M25 341v115h66v34q0 95 55 145t142 50q62 0 111 -28q53 69 159 69q139 0 197 -132l-123 -54q-6 22 -11 33.5t-20 22.5t-39 11q-26 0 -43 -20.5t-17 -64.5v-66h270v-519q0 -81 -50.5 -126t-118.5 -45q-49 0 -98 25t-72 84l119 53q12 -43 44 -43q35 0 35 63v393h-129v-341 h-141v341h-129v-341h-141v341h-66zM232 456h129v78q-18 32 -63 32q-29 0 -47.5 -20.5t-18.5 -64.5v-25z" />
<glyph unicode="&#xd;" horiz-adv-x="0" />
<glyph unicode=" "  horiz-adv-x="220" />
<glyph unicode="&#x09;" horiz-adv-x="220" />
<glyph unicode="&#xa0;" horiz-adv-x="220" />
<glyph unicode="!" horiz-adv-x="290" d="M56 81q0 40 24.5 64.5t64.5 24.5t64.5 -24.5t24.5 -64.5t-24.5 -64.5t-64.5 -24.5t-64.5 24.5t-24.5 64.5zM69 706h151l-2 -489h-146z" />
<glyph unicode="&#x22;" horiz-adv-x="341" d="M39 706h113l-14 -240h-87zM189 706h113l-14 -240h-87z" />
<glyph unicode="#" horiz-adv-x="580" d="M16 188l13 97h93l23 141h-91l13 97h93l29 183h103l-30 -183h107l29 183h103l-30 -183h94l-17 -97h-92l-23 -141h94l-17 -97h-92l-30 -188h-102l30 188h-107l-30 -188h-102l30 188h-91zM224 285h107l23 141h-107z" />
<glyph unicode="$" horiz-adv-x="571" d="M40 190l135 54q29 -69 73 -93l8 145l-35 10q-76 21 -118.5 69.5t-42.5 119.5q0 86 61 140t156 62l4 63h80l-4 -66q72 -12 123.5 -54.5t72.5 -113.5l-131 -63q-15 69 -72 97l-8 -155l16 -4q78 -20 128 -71.5t50 -129.5q0 -84 -59.5 -134.5t-155.5 -55.5l-3 -64h-80l3 70 q-74 14 -125 60.5t-76 113.5zM198 498q0 -51 64 -70l1 -1l8 145q-32 -5 -52.5 -24t-20.5 -50zM328 136q31 3 51 19t20 45q0 50 -64 75z" />
<glyph unicode="%" horiz-adv-x="731" d="M39 558q0 66 43 111t112 45q70 0 113 -45t43 -111t-43 -111t-113 -45q-69 0 -112 45t-43 111zM88 0l446 706h109l-447 -706h-108zM141 558q0 -27 15.5 -46t37.5 -19q23 0 38 19t15 46t-15 46t-38 19q-22 0 -37.5 -19t-15.5 -46zM381 148q0 66 43 111t112 45q70 0 113 -45 t43 -111t-43 -111t-113 -45q-69 0 -112 45t-43 111zM483 148q0 -27 15.5 -46t37.5 -19q23 0 38 19t15 46t-15 46t-38 19q-22 0 -37.5 -19t-15.5 -46z" />
<glyph unicode="&#x26;" horiz-adv-x="664" d="M36 199q0 113 88 173q-52 73 -52 141q0 89 67 146t167 57q89 0 151 -48.5t89 -138.5l-142 -67q-16 61 -45 91.5t-64 30.5q-30 0 -50.5 -20t-20.5 -57q0 -32 18.5 -59t77.5 -89l96 -101q5 11 5 29q0 20 -6 37h148q11 -93 -47 -169l147 -155h-191l-46 47q-68 -56 -166 -56 t-161 54.5t-63 153.5zM185 207q0 -41 25.5 -62.5t61.5 -21.5q33 0 63 20l-126 134q-24 -29 -24 -70z" />
<glyph unicode="'" horiz-adv-x="191" d="M39 706h113l-14 -240h-87z" />
<glyph unicode="(" horiz-adv-x="341" d="M50 275q0 119 44 235t120 247h132q-162 -269 -162 -483q0 -222 164 -483h-133q-78 135 -121.5 251t-43.5 233z" />
<glyph unicode=")" horiz-adv-x="341" d="M-7 -209q164 261 164 483q0 214 -162 483h132q76 -131 120 -247t44 -235q0 -117 -43.5 -233t-121.5 -251h-133z" />
<glyph unicode="*" horiz-adv-x="427" d="M31 543l83 46l-83 47l52 90l80 -51l-1 96h104l-3 -95l81 50l52 -90l-85 -47l85 -46l-52 -90l-82 50l3 -95h-104l2 95l-80 -50z" />
<glyph unicode="+" horiz-adv-x="553" d="M39 231v107h185v184h106v-184h184v-107h-184v-184h-106v184h-185z" />
<glyph unicode="," horiz-adv-x="262" d="M37 82q0 37 24.5 62.5t64.5 25.5t65 -26.5t25 -70.5q0 -81 -93 -222l-65 28q36 56 31 120q-52 24 -52 83z" />
<glyph unicode="-" horiz-adv-x="365" d="M39 205v131h287v-131h-287z" />
<glyph unicode="." horiz-adv-x="268" d="M45 81q0 40 24.5 64.5t64.5 24.5t64.5 -24.5t24.5 -64.5t-24.5 -64.5t-64.5 -24.5t-64.5 24.5t-24.5 64.5z" />
<glyph unicode="/" horiz-adv-x="249" d="M-16 -226l144 1000h111l-144 -1000h-111z" />
<glyph unicode="0" horiz-adv-x="611" d="M32 353q0 91 23 162.5t62.5 114.5t87.5 64.5t101 21.5t101 -21.5t87 -64.5t62 -114.5t23 -162.5t-23 -162.5t-62 -113.5t-87 -63.5t-101 -21.5t-101 21.5t-87.5 63.5t-62.5 113.5t-23 162.5zM182 354q0 -121 36 -175.5t88 -54.5t87.5 54.5t35.5 175.5t-35.5 175.5 t-87.5 54.5t-88 -54.5t-36 -175.5z" />
<glyph unicode="1" horiz-adv-x="401" d="M7 452v133q64 -1 125.5 37.5t82.5 83.5h113v-706h-148v521q-1 -4 -8.5 -12t-22.5 -18.5t-34.5 -19.5t-48 -14.5t-59.5 -4.5z" />
<glyph unicode="2" horiz-adv-x="544" d="M15 534q22 84 84.5 133t158.5 49q113 0 177 -64t64 -148q0 -18 -4 -37t-9 -35t-17.5 -36t-21 -33.5t-28.5 -35.5t-31 -34t-36.5 -37t-38 -36.5t-43.5 -40t-44 -40.5h249v-139h-435v130q33 31 79.5 74.5t70.5 65.5t55.5 53t46 49.5t30.5 41t21.5 41.5t5.5 39 q0 40 -23.5 65t-62.5 25q-41 0 -71 -29t-39 -88z" />
<glyph unicode="3" horiz-adv-x="531" d="M4 535q19 85 87 133t169 48q108 0 175 -52.5t67 -137.5q0 -39 -14.5 -71.5t-35.5 -51.5t-38 -29.5t-28 -12.5q34 -5 77.5 -48.5t43.5 -117.5q0 -89 -67.5 -146t-172.5 -57q-92 0 -160.5 47t-91.5 134l140 66q9 -57 40 -86t75 -29q38 0 62.5 20.5t24.5 61.5q0 88 -127 88 h-10v131h10q59 0 90.5 24t31.5 63q0 36 -25 54t-64 18q-97 0 -120 -116z" />
<glyph unicode="4" horiz-adv-x="589" d="M22 146v117l281 443h174v-429h85v-131h-85v-146h-141v146h-314zM170 277h166v269z" />
<glyph unicode="5" horiz-adv-x="553" d="M19 153l139 65q3 -45 33.5 -70.5t73.5 -25.5q49 0 76 34t27 84q0 48 -25.5 78.5t-77.5 30.5q-77 0 -120 -55l-107 35l34 377h444v-139h-327l-13 -133q35 47 113 47q101 0 163 -64.5t62 -176.5q0 -113 -64.5 -180.5t-185.5 -67.5q-97 0 -161 43.5t-84 117.5z" />
<glyph unicode="6" horiz-adv-x="563" d="M38 346q0 53 7 101.5t26 99t48 87t77.5 59.5t111.5 23q169 0 239 -153l-142 -65q-21 86 -104 86q-122 0 -124 -193q1 3 4 7.5t15 16.5t26.5 21t40.5 16.5t56 7.5q93 0 155 -63t62 -166q0 -105 -66 -172t-175 -67q-91 0 -150.5 51.5t-83 128t-23.5 174.5zM195 225 q0 -41 26.5 -71t67.5 -30t68.5 30.5t27.5 73.5q0 41 -25 71t-66 30q-42 0 -70.5 -30.5t-28.5 -73.5z" />
<glyph unicode="7" horiz-adv-x="497" d="M22 564v142h453v-113l-254 -593h-161l259 564h-297z" />
<glyph unicode="8" horiz-adv-x="577" d="M40 203q0 67 35 110.5t77 57.5q-97 50 -97 148q0 92 66.5 144.5t166.5 52.5t166.5 -53t66.5 -145q0 -100 -97 -147q46 -15 79.5 -60.5t33.5 -108.5q0 -99 -73 -154.5t-176 -55.5q-102 0 -175 55t-73 156zM188 211q0 -40 25 -65t75 -25t75 25t25 65q0 43 -28 68t-72 25 q-45 0 -72.5 -24.5t-27.5 -68.5zM203 503q2 -33 26 -52.5t60 -19.5t60 20t24 54q0 35 -22 58.5t-63 23.5q-43 0 -65 -24t-20 -60z" />
<glyph unicode="9" horiz-adv-x="558" d="M19 481q0 104 65.5 169.5t173.5 65.5q70 0 121.5 -29t80.5 -80t43 -112.5t14 -134.5q0 -52 -6.5 -99.5t-24 -98t-45.5 -87t-75 -60t-107 -23.5q-64 0 -119.5 25.5t-85.5 79.5l128 90q20 -63 84 -63q110 0 112 203q-1 -3 -4 -8.5t-15 -19t-27 -24t-41 -19t-57 -8.5 q-91 0 -153 65t-62 168zM170 481q0 -42 25 -72t65 -30q42 0 71 32t29 75q0 41 -26 69.5t-67 28.5q-43 0 -70 -30t-27 -73z" />
<glyph unicode=":" horiz-adv-x="268" d="M45 81q0 40 24.5 64.5t64.5 24.5t64.5 -24.5t24.5 -64.5t-24.5 -64.5t-64.5 -24.5t-64.5 24.5t-24.5 64.5zM45 375q0 40 24.5 64.5t64.5 24.5t64.5 -24.5t24.5 -64.5t-24.5 -64.5t-64.5 -24.5t-64.5 24.5t-24.5 64.5z" />
<glyph unicode=";" horiz-adv-x="262" d="M37 82q0 37 24.5 62.5t64.5 25.5t65 -26.5t25 -70.5q0 -81 -93 -222l-65 28q36 56 31 120q-52 24 -52 83zM37 375q0 40 24.5 64.5t64.5 24.5t64.5 -24.5t24.5 -64.5t-24.5 -64.5t-64.5 -24.5t-64.5 24.5t-24.5 64.5z" />
<glyph unicode="&#x3c;" horiz-adv-x="524" d="M39 243v74l446 215v-114l-298 -138l298 -138v-114z" />
<glyph unicode="=" horiz-adv-x="553" d="M39 151v107h475v-107h-475zM39 310v107h475v-107h-475z" />
<glyph unicode="&#x3e;" horiz-adv-x="524" d="M39 28v114l298 138l-298 138v114l446 -215v-74z" />
<glyph unicode="?" horiz-adv-x="527" d="M6 529q27 89 93.5 138t161.5 49q103 0 170 -55.5t67 -146.5q0 -54 -23 -89t-68 -72q-44 -37 -55.5 -59t-6.5 -77h-146q-8 65 9 110t64 87q7 6 23 19t22 19.5t15.5 17t13 20.5t3.5 22q0 31 -24 51.5t-58 20.5q-39 0 -71.5 -31.5t-47.5 -90.5zM186 81q0 40 24.5 64.5 t64.5 24.5t64.5 -24.5t24.5 -64.5t-24.5 -64.5t-64.5 -24.5t-64.5 24.5t-24.5 64.5z" />
<glyph unicode="@" horiz-adv-x="819" d="M62 174q0 153 104.5 261t255.5 108q136 0 237 -87.5t101 -221.5q0 -95 -52 -167.5t-145 -72.5q-67 0 -94 34q-47 -36 -105 -36q-63 0 -100.5 42t-37.5 116q0 92 60 155q63 66 155 66q65 0 146 -40l-39 -211q-2 -10 -2 -16q0 -25 32 -25q42 0 66 52.5t24 108.5 q0 89 -70 151.5t-170 62.5q-111 0 -190 -78t-79 -197q0 -115 76 -191.5t201 -76.5q90 0 165 48l42 -75q-102 -63 -210 -63q-156 0 -263.5 99.5t-107.5 253.5zM325 159q0 -81 58 -81q33 0 64 31l31 167q-15 6 -33 6q-54 0 -87 -31t-33 -92z" />
<glyph unicode="A" horiz-adv-x="688" d="M-5 0l271 706h160l267 -706h-154l-61 174h-267l-62 -174h-154zM257 303h172l-85 251z" />
<glyph unicode="B" horiz-adv-x="608" d="M55 0v706h257q122 0 190 -51t68 -141q0 -63 -33 -104t-84 -53q120 -24 120 -159q0 -198 -268 -198h-250zM203 134h95q125 0 125 76q0 79 -109 79h-111v-155zM203 423h113q47 0 76 19.5t29 54.5q0 75 -125 75h-93v-149z" />
<glyph unicode="C" horiz-adv-x="733" d="M32 351q0 119 49 203.5t126 123t174 38.5q115 0 202.5 -55.5t119.5 -151.5l-139 -65q-22 69 -72.5 104.5t-114.5 35.5q-36 0 -68.5 -11.5t-62 -36.5t-47 -72t-17.5 -110t17.5 -110t46.5 -72t61.5 -36.5t68.5 -11.5q107 0 177 106l125 -90q-99 -148 -297 -148 q-153 0 -251 92.5t-98 266.5z" />
<glyph unicode="D" horiz-adv-x="689" d="M55 0v706h256q160 0 251 -88q92 -89 92 -255q0 -165 -91 -264t-253 -99h-255zM203 134h105q196 0 196 221q0 111 -51.5 164t-158.5 53h-91v-438z" />
<glyph unicode="E" horiz-adv-x="593" d="M55 0v706h506v-134h-358v-146h248v-134h-248v-158h329v-134h-477z" />
<glyph unicode="F" horiz-adv-x="577" d="M55 0v706h500v-134h-352v-146h217v-134h-217v-292h-148z" />
<glyph unicode="G" horiz-adv-x="733" d="M32 353q0 95 31.5 167.5t83.5 113.5t111.5 61.5t122.5 20.5q109 0 189 -56.5t106 -151.5l-139 -67q-14 69 -60 106t-107 37q-33 0 -63.5 -11.5t-59.5 -36t-47 -73t-18 -114.5q0 -120 55.5 -172.5t144.5 -52.5q62 0 110 25t63 80h-184v133h309v-362h-125v72 q-26 -33 -80 -56.5t-116 -23.5q-54 0 -108.5 19.5t-105 60t-82 113.5t-31.5 168z" />
<glyph unicode="H" horiz-adv-x="705" d="M55 0v706h148v-283h299v283h148v-706h-148v290h-299v-290h-148z" />
<glyph unicode="I" horiz-adv-x="258" d="M55 0v706h148v-706h-148z" />
<glyph unicode="J" horiz-adv-x="599" d="M16 226l146 47q15 -81 43.5 -115t81.5 -34q55 0 82 36.5t27 126.5v419h148v-419q0 -152 -63.5 -223.5t-193.5 -71.5q-67 0 -116.5 18t-79.5 53t-47 73t-28 90z" />
<glyph unicode="K" horiz-adv-x="645" d="M55 0v706h148v-279l246 279h186l-296 -337l263 -369h-181l-177 259l-41 -46v-213h-148z" />
<glyph unicode="L" horiz-adv-x="537" d="M55 0v706h148v-572h324v-134h-472z" />
<glyph unicode="M" horiz-adv-x="850" d="M55 0v706h161l209 -500l209 500h161v-706h-148v399l-168 -399h-108l-168 399v-399h-148z" />
<glyph unicode="N" horiz-adv-x="703" d="M55 0v706h142l305 -453v453h146v-706h-141l-306 451v-451h-146z" />
<glyph unicode="O" horiz-adv-x="759" d="M39 352q0 77 21.5 140t56.5 103.5t80.5 68.5t91 40t90.5 12q58 0 115 -20.5t109 -61t84.5 -114t32.5 -168.5t-32.5 -167.5t-84.5 -113t-109 -60t-115 -19.5q-45 0 -90.5 11.5t-91 39t-80.5 67.5t-56.5 102.5t-21.5 139.5zM189 354q0 -63 17.5 -110.5t47 -72t61 -36 t64.5 -11.5q27 0 52 6.5t51 23.5t45 42t31 66t12 92t-12 92t-31 66t-45 42t-51 23.5t-52 6.5q-33 0 -64.5 -11.5t-61 -36t-47 -72t-17.5 -110.5z" />
<glyph unicode="P" horiz-adv-x="604" d="M55 0v706h251q126 0 199 -59.5t73 -171.5q0 -119 -71 -175.5t-201 -56.5h-103v-243h-148zM203 377h110q120 0 120 98q0 97 -120 97h-110v-195z" />
<glyph unicode="Q" horiz-adv-x="755" d="M39 352q0 77 21.5 140t56.5 103.5t80.5 68.5t91 40t90.5 12q58 0 115 -20.5t109 -61t84.5 -114t32.5 -168.5q0 -129 -61 -218q19 -8 38 -8q26 0 41 11v-123q-25 -14 -65 -14q-63 0 -119 38q-82 -46 -175 -46q-45 0 -90.5 11.5t-91 39t-80.5 67.5t-56.5 102.5t-21.5 139.5 zM189 354q0 -63 17.5 -110.5t47 -72t61 -36t64.5 -11.5q32 0 62 10l-52 49l93 103l63 -59q25 55 25 127q0 51 -12 92t-31 66t-45 42t-51 23.5t-52 6.5q-33 0 -64.5 -11.5t-61 -36t-47 -72t-17.5 -110.5z" />
<glyph unicode="R" horiz-adv-x="604" d="M55 0v706h251q126 0 199 -57t73 -164q0 -187 -180 -224l157 -261h-165l-146 253h-41v-253h-148zM203 387h110q120 0 120 98q0 87 -120 87h-110v-185z" />
<glyph unicode="S" horiz-adv-x="584" d="M22 181l142 57q48 -115 143 -115q39 0 65.5 17.5t26.5 52.5q0 62 -87 84l-100 26q-79 21 -124 73.5t-45 126.5q0 97 73.5 155t183.5 58q95 0 165.5 -46t96.5 -135l-138 -66q-11 55 -49 86t-88 31q-41 0 -70 -21t-29 -59q0 -55 67 -74l101 -29q188 -54 188 -209 q0 -95 -68.5 -148.5t-174.5 -53.5q-107 0 -177.5 53t-101.5 136z" />
<glyph unicode="T" horiz-adv-x="582" d="M16 572v134h550v-134h-201v-572h-148v572h-201z" />
<glyph unicode="U" horiz-adv-x="694" d="M55 292v414h148v-406q0 -82 39.5 -129t109.5 -47q139 0 139 176v406h148v-414q0 -144 -74 -222t-213 -78t-218 80t-79 220z" />
<glyph unicode="V" horiz-adv-x="677" d="M0 706h153l186 -565l185 565h153l-260 -706h-160z" />
<glyph unicode="W" horiz-adv-x="964" d="M2 706h153l135 -545l129 545h126l129 -545l135 545h153l-204 -706h-161l-115 434l-115 -434h-161z" />
<glyph unicode="X" horiz-adv-x="640" d="M0 706h170l151 -230l149 230h170l-241 -351l241 -355h-160l-159 235l-161 -235h-159l240 356z" />
<glyph unicode="Y" horiz-adv-x="664" d="M-2 706h169l166 -256l177 256h156l-260 -386v-320h-148v320z" />
<glyph unicode="Z" horiz-adv-x="601" d="M24 572v134h554v-102l-351 -470h324v-134h-520v104l351 468h-358z" />
<glyph unicode="[" horiz-adv-x="308" d="M73 -209v966h231v-109h-98v-748h98v-109h-231z" />
<glyph unicode="\" horiz-adv-x="249" d="M10 774h111l144 -1000h-111z" />
<glyph unicode="]" horiz-adv-x="308" d="M4 -100h98v748h-98v109h231v-966h-231v109z" />
<glyph unicode="^" horiz-adv-x="510" d="M16 357l171 349h136l171 -349h-142l-97 209l-98 -209h-141z" />
<glyph unicode="_" horiz-adv-x="455" d="M-16 -62h487v-121h-487v121z" />
<glyph unicode="`" horiz-adv-x="462" d="M72 707h147l125 -184h-106z" />
<glyph unicode="a" horiz-adv-x="483" d="M16 338q1 6 6.5 18t21 31.5t38 36t61.5 28.5t87 12q89 0 144 -40t55 -124v-172q0 -22 19 -22q11 0 22 4v-110q-25 -4 -56 -4q-46 0 -73 16t-36 55q-1 -5 -4 -11t-12.5 -18.5t-22.5 -21.5t-36.5 -16.5t-53.5 -7.5q-69 0 -112.5 35t-43.5 96q0 51 37.5 83t126.5 49l42 8 q34 6 48 15.5t14 27.5q0 39 -64 39q-30 0 -50 -11.5t-27 -22.5t-14 -28zM163 140q0 -19 14 -29t37 -10q74 0 74 104q-9 -9 -68 -23q-30 -7 -43.5 -15.5t-13.5 -26.5z" />
<glyph unicode="b" horiz-adv-x="540" d="M41 0v706h141v-310q5 25 38.5 46.5t87.5 21.5q68 0 117.5 -38.5t70.5 -91.5t21 -111q0 -99 -63.5 -165t-150.5 -66q-55 0 -85 23t-36 53v-68h-141zM178 230q0 -62 26.5 -90.5t67.5 -28.5q47 0 73 35t26 86q0 49 -24.5 81t-73.5 32q-95 0 -95 -115z" />
<glyph unicode="c" horiz-adv-x="514" d="M27 230q0 45 15 85.5t44 74.5t78.5 54t112.5 20q167 0 214 -135l-128 -56q-18 72 -91 72q-31 0 -52.5 -13t-30.5 -34t-12.5 -37t-3.5 -32q0 -44 25 -81t77 -37q59 0 84 55l121 -61q-25 -53 -79.5 -83t-128.5 -30q-118 0 -181.5 71t-63.5 167z" />
<glyph unicode="d" horiz-adv-x="540" d="M23 223q0 58 21 111t70.5 91.5t117.5 38.5q54 0 87.5 -21.5t38.5 -46.5v310h141v-706h-141v68q-7 -31 -35 -53.5t-84 -22.5q-89 0 -152.5 66t-63.5 165zM169 232q0 -51 26 -86t73 -35q41 0 67.5 28.5t26.5 90.5q0 115 -95 115q-49 0 -73.5 -32t-24.5 -81z" />
<glyph unicode="e" horiz-adv-x="506" d="M27 224q-1 102 59 172q59 69 170 68h3q45 0 84.5 -13.5t75.5 -42t53 -83.5q12 -39 12 -88q0 -20 -2 -42h-314q8 -84 91 -84q57 0 78 48l121 -62q-25 -48 -77 -76.5t-124 -28.5q-110 0 -170 65t-60 167zM168 281h186q1 29 -24 50t-66 21q-39 0 -64 -19.5t-32 -51.5z" />
<glyph unicode="f" horiz-adv-x="373" d="M25 341v115h66v75q0 94 51 144.5t131 50.5q132 0 182 -132l-123 -54q-4 21 -8.5 33t-16.5 23t-30 11q-24 0 -34.5 -19.5t-10.5 -65.5v-66h106v-115h-106v-341h-141v341h-66z" />
<glyph unicode="g" horiz-adv-x="501" d="M-7 -82q0 55 46 86q-32 29 -32 69q0 61 69 100q-44 46 -44 113q0 78 59 128t161 50q59 0 101 -16q25 25 62 38q24 8 44 8q11 0 21 -2v-96q-9 6 -25 7.5t-28 -4.5q40 -47 40 -118q0 -85 -57 -130t-162 -45q-75 0 -122 29q-15 -12 -15 -31q0 -42 63 -42h117q83 0 133 -36 t50 -98q0 -67 -60.5 -114.5t-180.5 -47.5q-110 0 -175 41t-65 111zM118 -67q0 -57 110 -57q109 0 109 50q0 14 -12.5 19.5t-43.5 5.5h-94q-31 0 -61 5q-8 -8 -8 -23zM169 279q0 -32 23 -52.5t60 -20.5q36 0 57 19.5t21 52.5q0 34 -21 55.5t-57 21.5q-37 0 -60 -22t-23 -54z " />
<glyph unicode="h" horiz-adv-x="493" d="M41 0v706h141v-307q5 21 34.5 43t88.5 22q83 0 122 -53.5t39 -162.5v-248h-141v243q0 57 -15 79.5t-48 22.5q-80 0 -80 -101v-244h-141z" />
<glyph unicode="i" horiz-adv-x="265" d="M54 624q0 37 21 58.5t56 21.5q37 0 58.5 -21.5t21.5 -58.5q0 -35 -21.5 -56t-58.5 -21q-35 0 -56 21.5t-21 55.5zM62 0v456h141v-456h-141z" />
<glyph unicode="j" horiz-adv-x="281" d="M-111 -125l119 53q12 -43 44 -43q35 0 35 63v508h141v-519q0 -81 -50.5 -126t-118.5 -45q-49 0 -98 25t-72 84zM79 624q0 37 21 58.5t56 21.5q37 0 58.5 -21.5t21.5 -58.5q0 -35 -21.5 -56t-58.5 -21q-34 0 -55.5 21.5t-21.5 55.5z" />
<glyph unicode="k" horiz-adv-x="520" d="M41 0v706h141v-381l156 131h192l-213 -187l166 -269h-166l-104 177l-31 -27v-150h-141z" />
<glyph unicode="l" horiz-adv-x="231" d="M45 0v706h141v-706h-141z" />
<glyph unicode="m" horiz-adv-x="783" d="M41 0v456h136v-67q14 30 47.5 52.5t86.5 22.5q89 0 126 -75q19 34 58.5 54.5t89.5 20.5q157 0 157 -216v-248h-141v243q0 57 -14.5 79.5t-47.5 22.5q-77 0 -77 -101v-244h-141v243q0 57 -14.5 79.5t-47.5 22.5q-77 0 -77 -101v-244h-141z" />
<glyph unicode="n" horiz-adv-x="507" d="M41 0v456h136v-67q5 25 36 50t93 25q160 0 160 -216v-248h-141v243q0 57 -15 79.5t-48 22.5q-80 0 -80 -101v-244h-141z" />
<glyph unicode="o" horiz-adv-x="545" d="M27 230q0 98 67.5 166t178.5 68q110 0 177.5 -68t67.5 -167q0 -42 -13 -81.5t-40.5 -75.5t-77 -58t-114.5 -22t-115 22t-77 58.5t-40.5 76t-13.5 81.5zM173 227q0 -47 27.5 -81.5t72.5 -34.5t72 34.5t27 81.5q0 46 -25.5 82t-73.5 36t-74 -36.5t-26 -81.5z" />
<glyph unicode="p" horiz-adv-x="540" d="M41 -219v675h141v-68q7 31 35 53.5t84 22.5q89 0 152.5 -66t63.5 -165q0 -58 -21 -111t-70.5 -91.5t-117.5 -38.5q-54 0 -87.5 21.5t-38.5 46.5v-279h-141zM178 226q0 -115 95 -115q49 0 73.5 32t24.5 81q0 51 -26 86t-73 35q-41 0 -67.5 -28.5t-26.5 -90.5z" />
<glyph unicode="q" horiz-adv-x="540" d="M23 233q0 99 63.5 165t150.5 66q55 0 85 -23t36 -53v68h141v-675h-141v279q-5 -25 -38.5 -46.5t-87.5 -21.5q-68 0 -117.5 38.5t-70.5 91.5t-21 111zM169 224q0 -49 24.5 -81t73.5 -32q95 0 95 115q0 62 -26.5 90.5t-67.5 28.5q-47 0 -73 -35t-26 -86z" />
<glyph unicode="r" horiz-adv-x="369" d="M41 0v456h136v-76q10 38 42.5 61t70.5 23q55 0 84 -33l-68 -115q-21 19 -51 19q-32 0 -52.5 -28.5t-20.5 -85.5v-221h-141z" />
<glyph unicode="s" horiz-adv-x="437" d="M25 99l112 59q27 -52 86 -52q22 0 37.5 9t15.5 27q0 6 -1.5 10.5t-5.5 8t-8 6.5t-11 5.5t-11.5 4t-13.5 3.5t-14.5 2.5t-15.5 2t-14 2.5q-139 24 -139 133q0 70 53.5 107t137.5 37q146 0 187 -114l-108 -52q-9 30 -32.5 43.5t-49.5 13.5q-45 0 -45 -34q0 -15 12 -24.5 t25 -12.5t34 -7q5 -1 7 -1q156 -29 156 -141q0 -71 -58 -107t-138 -36q-69 0 -121 27.5t-77 79.5z" />
<glyph unicode="t" horiz-adv-x="359" d="M-19 341v115h83v131l141 63v-194h135v-115h-135v-164q0 -52 8 -61q5 -5 12 -5q19 0 27 31l104 -50q-32 -100 -148 -100q-76 0 -110 45t-34 141v163h-83z" />
<glyph unicode="u" horiz-adv-x="507" d="M41 208v248h141v-243q0 -57 15 -79.5t48 -22.5q80 0 80 101v244h141v-456h-136v67q-5 -25 -36 -50t-93 -25q-160 0 -160 216z" />
<glyph unicode="v" horiz-adv-x="482" d="M-1 456h151l89 -255l95 255h149l-183 -456h-119z" />
<glyph unicode="w" horiz-adv-x="683" d="M18 456h143l57 -216l63 216h121l62 -216l57 216h144l-142 -456h-98l-84 246l-83 -246h-98z" />
<glyph unicode="x" horiz-adv-x="495" d="M3 456h163l79 -116l86 116h161l-168 -228l159 -228h-165l-72 112l-74 -112h-160l156 223z" />
<glyph unicode="y" horiz-adv-x="494" d="M7 456h150l88 -268l101 268h141l-265 -685h-138l94 247z" />
<glyph unicode="z" horiz-adv-x="443" d="M26 341v115h392v-93l-206 -248h203v-115h-371v98l202 243h-220z" />
<glyph unicode="{" horiz-adv-x="313" d="M22 253v42q36 18 44 41.5t8 74.5v186q0 43 4 68t17.5 48.5t42 33.5t74.5 10h97v-109h-70q-21 -1 -26.5 -12.5t-5.5 -43.5v-210q0 -44 -7.5 -67t-30.5 -41q23 -18 30.5 -41t7.5 -67v-210q0 -32 5.5 -43.5t26.5 -12.5h70v-109h-97q-46 0 -74.5 10t-42 33.5t-17.5 48.5 t-4 68v186q0 27 -1 39.5t-5.5 29t-15.5 27t-30 20.5z" />
<glyph unicode="|" horiz-adv-x="259" d="M73 -177v943h113v-943h-113z" />
<glyph unicode="}" horiz-adv-x="313" d="M4 -100h70q21 1 26.5 12.5t5.5 43.5v210q0 44 7.5 67t30.5 41q-23 18 -30.5 41t-7.5 67v210q0 32 -5.5 43.5t-26.5 12.5h-70v109h97q46 0 74.5 -10t42 -33.5t17.5 -48.5t4 -68v-186q0 -27 1 -39.5t5.5 -29t15.5 -27t30 -20.5v-42q-36 -18 -44 -41.5t-8 -74.5v-186 q0 -43 -4 -68t-17.5 -48.5t-42 -33.5t-74.5 -10h-97v109z" />
<glyph unicode="~" horiz-adv-x="532" d="M27 436q28 73 53 104q40 50 96 50q43 0 103 -32q53 -29 76 -29q19 0 34 17t32 52l84 -52q-22 -68 -54 -104q-42 -46 -99 -46q-41 0 -103 31q-56 28 -73 28q-19 0 -33 -18t-33 -57z" />
<glyph unicode="&#xa1;" horiz-adv-x="268" d="M45 431q0 40 24.5 64.5t64.5 24.5t64.5 -24.5t24.5 -64.5t-24.5 -64.5t-64.5 -24.5t-64.5 24.5t-24.5 64.5zM59 -194l2 489h146l3 -489h-151z" />
<glyph unicode="&#xa2;" horiz-adv-x="515" d="M34 352q0 85 50.5 150.5t149.5 79.5v90h80v-88q142 -12 184 -133l-128 -56q-13 52 -56 66v-223q34 11 52 50l121 -61q-45 -97 -173 -111v-93h-80v94q-97 14 -148.5 81.5t-51.5 153.5zM180 351q0 -31 13 -61.5t41 -45.5v213q-54 -26 -54 -106z" />
<glyph unicode="&#xa3;" horiz-adv-x="534" d="M11 84q102 79 102 160q0 20 -8 42h-91v107h41q-24 56 -24 98q0 94 64 159.5t179 65.5q98 0 161.5 -50t91.5 -138l-142 -67q-33 123 -118 123q-35 0 -60 -22t-25 -61q0 -32 37 -108h150v-107h-111q5 -22 5 -38q0 -55 -36 -112l254 12v-148h-440z" />
<glyph unicode="&#xa4;" horiz-adv-x="525" d="M77 301q0 62 37 113l-37 37l37 38l37 -37q50 37 114 37q65 0 113 -39l38 38l35 -36l-37 -37q38 -51 38 -114q0 -64 -38 -113l37 -37l-37 -37l-37 37q-49 -37 -111 -37q-65 0 -115 37l-37 -37l-35 35l36 37q-38 49 -38 115zM119 301q0 -61 42 -103t103 -42q62 0 104 42 t42 103q0 62 -42 104t-104 42q-61 0 -103 -42t-42 -104z" />
<glyph unicode="&#xa5;" horiz-adv-x="574" d="M-7 706h169l126 -246l137 246h156l-187 -327h132v-104h-165v-48h165v-104h-165v-123h-148v123h-165v104h165v48h-165v104h131z" />
<glyph unicode="&#xa6;" horiz-adv-x="259" d="M73 -177v424h113v-424h-113zM73 342v424h113v-424h-113z" />
<glyph unicode="&#xa7;" horiz-adv-x="553" d="M49 -45l133 47q15 -46 33.5 -65.5t49.5 -19.5q26 0 41 12.5t15 33.5q0 14 -6.5 26.5t-23 25.5t-30 21.5t-41.5 25t-43 25.5q-60 38 -88.5 75.5t-28.5 97.5q0 88 79 159q-56 55 -56 121q0 80 53.5 128t143.5 48q161 0 217 -162l-134 -47q-13 46 -29.5 65.5t-43.5 19.5 q-25 0 -41.5 -13.5t-16.5 -34.5q0 -20 23.5 -36.5t117.5 -67.5q63 -34 90.5 -70t27.5 -94q0 -91 -80 -171q59 -56 59 -136q0 -81 -52 -128.5t-143 -47.5q-87 0 -143.5 43.5t-82.5 118.5zM209 278q0 -28 19.5 -49t76.5 -57q37 46 37 84q0 28 -17.5 45.5t-78.5 50.5 q-37 -40 -37 -74z" />
<glyph unicode="&#xa8;" horiz-adv-x="429" d="M45 603q0 31 18.5 50t50.5 19t50.5 -19t18.5 -50t-18.5 -50t-50.5 -19t-50.5 19t-18.5 50zM245 603q0 31 18.5 50t50.5 19t50.5 -19t18.5 -50t-18.5 -50t-50.5 -19t-50.5 19t-18.5 50z" />
<glyph unicode="&#xa9;" horiz-adv-x="824" d="M59 353q0 146 103.5 249.5t249.5 103.5t249.5 -103.5t103.5 -249.5t-103.5 -249.5t-249.5 -103.5t-249.5 103.5t-103.5 249.5zM130 353q0 -116 83 -199t199 -83q117 0 200 83t83 199q0 117 -83 200t-200 83q-116 0 -199 -83t-83 -200zM229 346q0 105 51 164t137 59 q72 0 118 -43.5t50 -122.5h-78q-7 90 -90 90q-104 0 -104 -142q0 -72 24.5 -105.5t76.5 -33.5q86 0 93 96h78q-4 -84 -51.5 -128t-124.5 -44q-86 0 -133 54.5t-47 155.5z" />
<glyph unicode="&#xaa;" horiz-adv-x="331" d="M15 483q0 35 25.5 56.5t86.5 32.5l28 5q41 8 41 30q0 26 -40 26q-46 0 -61 -42l-80 37q0 4 4 12t14.5 21.5t26 24.5t42 19.5t59.5 8.5q58 0 94.5 -27.5t36.5 -84.5v-115q0 -15 13 -15q10 0 15 2v-75q-13 -2 -38 -2q-62 0 -74 48q-20 -51 -87 -51q-47 0 -76.5 24t-29.5 65 zM112 493q0 -24 34 -24q50 0 50 70q-5 -5 -45 -16q-39 -8 -39 -30z" />
<glyph unicode="&#xab;" horiz-adv-x="544" d="M45 266l144 177h132l-149 -177l149 -177h-132zM235 266l144 177h132l-149 -177l149 -177h-132z" />
<glyph unicode="&#xac;" d="M65 372q0 50 2 79t10 55t20 38t37.5 21t56 11t81.5 2t81.5 -2t56 -11t37 -21t20 -38t10 -55t1.5 -79t-1.5 -79t-10 -55.5t-20 -38t-37 -21t-56 -11.5t-81.5 -2t-81.5 2t-56 11t-37.5 21t-20 38t-10 55.5t-2 79.5zM122 323l32 -56l105 82l-19 -131h65l-20 131l105 -82 l32 56l-123 50l123 49l-32 56l-105 -82l19 131h-64l19 -131l-105 81l-32 -56l123 -48z" />
<glyph unicode="&#xae;" horiz-adv-x="644" d="M126 533q0 80 57 137t137 57t137 -57t57 -137t-57 -137t-137 -57t-137 57t-57 137zM168 533q0 -63 44.5 -107.5t107.5 -44.5t107.5 44.5t44.5 107.5t-44.5 107.5t-107.5 44.5t-107.5 -44.5t-44.5 -107.5zM250 425v216h76q34 0 57.5 -16t23.5 -52q0 -44 -38 -59l40 -89 h-49l-39 83h-27v-83h-44zM294 548h29q38 0 38 25t-38 25h-29v-50z" />
<glyph unicode="&#xaf;" horiz-adv-x="401" d="M54 555v101h293v-101h-293z" />
<glyph unicode="&#xb0;" horiz-adv-x="402" d="M39 522q0 67 47.5 114.5t114.5 47.5t114.5 -47t47.5 -115q0 -67 -47.5 -114t-114.5 -47t-114.5 47t-47.5 114zM117 522q0 -34 24.5 -59t59.5 -25t59.5 25t24.5 59t-24.5 59t-59.5 25t-59.5 -25t-24.5 -59z" />
<glyph unicode="&#xb1;" horiz-adv-x="553" d="M39 0v107h475v-107h-475zM39 310v107h185v184h106v-184h184v-107h-184v-144h-106v144h-185z" />
<glyph unicode="&#xb2;" horiz-adv-x="381" d="M49 591q18 59 57 92t96 33q65 0 102.5 -40t37.5 -92q0 -51 -36.5 -97t-109.5 -110h138v-91h-263v86q99 93 135 135.5t36 69.5q0 18 -12 30t-32 12q-49 0 -60 -72z" />
<glyph unicode="&#xb3;" horiz-adv-x="360" d="M13 590q14 59 54 92.5t102 33.5q64 0 105.5 -34t41.5 -88q0 -32 -14.5 -56.5t-36.5 -35.5q22 -10 38 -35.5t16 -59.5q0 -55 -42.5 -92t-107.5 -37q-53 0 -93.5 32.5t-55.5 93.5l90 43q11 -72 63 -72q21 0 36 10t15 30q0 39 -63 39h-14v93h14q29 0 44.5 11t15.5 28 q0 16 -15.5 24.5t-36.5 8.5q-53 0 -67 -72z" />
<glyph unicode="&#xb4;" horiz-adv-x="462" d="M118 523l125 184h147l-166 -184h-106z" />
<glyph unicode="&#xb5;" horiz-adv-x="581" d="M84 -190v646h141v-243q0 -57 15 -79.5t48 -22.5q80 0 80 101v244h141v-456h-126l-10 67q-4 -23 -32.5 -48.5t-83.5 -25.5q-24 0 -46 6l16 -189h-143z" />
<glyph unicode="&#xb6;" horiz-adv-x="591" d="M37 513q0 86 62.5 139.5t155.5 53.5h303v-92h-51v-823h-109v823h-62v-823h-109v525q-80 2 -135 58.5t-55 138.5z" />
<glyph unicode="&#xb7;" horiz-adv-x="244" d="M33 264q0 40 24.5 64.5t64.5 24.5t64.5 -24.5t24.5 -64.5t-24.5 -64.5t-64.5 -24.5t-64.5 24.5t-24.5 64.5z" />
<glyph unicode="&#xb8;" horiz-adv-x="454" d="M139 -158q78 1 78 45q0 34 -58 44l16 77h67l-8 -43q81 -18 81 -77q0 -47 -49 -79q-44 -29 -105 -35z" />
<glyph unicode="&#xb9;" horiz-adv-x="275" d="M14 536v102q39 -1 75 21t48 47h68v-425h-93v290q-39 -36 -98 -35z" />
<glyph unicode="&#xba;" horiz-adv-x="353" d="M11 558q0 69 43.5 112.5t122.5 43.5q80 0 123.5 -43.5t43.5 -112.5q0 -66 -41 -115t-126 -49t-125.5 49.5t-40.5 114.5zM110 555q0 -34 18.5 -57t48.5 -23q31 0 49.5 23.5t18.5 57.5q0 30 -15.5 53.5t-52.5 23.5q-36 0 -51.5 -24t-15.5 -54z" />
<glyph unicode="&#xbb;" horiz-adv-x="544" d="M33 89l149 177l-149 177h132l144 -177l-144 -177h-132zM223 89l149 177l-149 177h132l144 -177l-144 -177h-132z" />
<glyph unicode="&#xbc;" horiz-adv-x="760" d="M14 536v102q39 -1 75 21t48 47h68v-425h-93v290q-39 -36 -98 -35zM75 0l446 706h109l-447 -706h-108zM386 83v70l170 271h95v-256h55v-85h-55v-83h-89v83h-176zM480 168h82v133z" />
<glyph unicode="&#xbd;" horiz-adv-x="805" d="M14 536v102q39 -1 75 21t48 47h68v-425h-93v290q-39 -36 -98 -35zM75 0l446 706h109l-447 -706h-108zM450 305q18 59 57 92t96 33q65 0 102.5 -40t37.5 -92q0 -51 -36.5 -97t-109.5 -110h138v-91h-263v86q99 93 135 135.5t36 69.5q0 18 -12 30t-32 12q-49 0 -60 -72z" />
<glyph unicode="&#xbe;" horiz-adv-x="880" d="M37 590q14 59 54 92.5t102 33.5q64 0 105.5 -34t41.5 -88q0 -32 -14.5 -56.5t-36.5 -35.5q22 -10 38 -35.5t16 -59.5q0 -55 -42.5 -92t-107.5 -37q-53 0 -93.5 32.5t-55.5 93.5l90 43q11 -72 63 -72q21 0 36 10t15 30q0 39 -63 39h-14v93h14q29 0 44.5 11t15.5 28 q0 16 -15.5 24.5t-36.5 8.5q-53 0 -67 -72zM194 0l446 706h109l-447 -706h-108zM505 83v70l170 271h95v-256h55v-85h-55v-83h-89v83h-176zM599 168h82v133z" />
<glyph unicode="&#xbf;" horiz-adv-x="527" d="M6 -2q0 54 23 89t68 72q44 37 55.5 59t6.5 77h146q8 -65 -9 -110t-64 -87q-7 -6 -23 -19t-22 -19.5t-15.5 -17t-13 -20.5t-3.5 -22q0 -31 24 -51.5t58 -20.5q39 0 71.5 31.5t47.5 90.5l142 -67q-27 -89 -93.5 -138t-161.5 -49q-103 0 -170 55.5t-67 146.5zM140 431 q0 40 24.5 64.5t64.5 24.5t64.5 -24.5t24.5 -64.5t-24.5 -64.5t-64.5 -24.5t-64.5 24.5t-24.5 64.5z" />
<glyph unicode="&#xc0;" horiz-adv-x="688" d="M-5 0l271 706h160l267 -706h-154l-61 174h-267l-62 -174h-154zM210 931h147l125 -184h-106zM257 303h172l-85 251z" />
<glyph unicode="&#xc1;" horiz-adv-x="688" d="M-5 0l271 706h160l267 -706h-154l-61 174h-267l-62 -174h-154zM210 747l125 184h147l-166 -184h-106zM257 303h172l-85 251z" />
<glyph unicode="&#xc2;" horiz-adv-x="688" d="M-5 0l271 706h160l267 -706h-154l-61 174h-267l-62 -174h-154zM167 747l125 184h109l125 -184h-107l-73 87l-72 -87h-107zM257 303h172l-85 251z" />
<glyph unicode="&#xc3;" horiz-adv-x="688" d="M-5 0l271 706h160l267 -706h-154l-61 174h-267l-62 -174h-154zM171 816q17 41 48 73t67 32q28 0 71 -33q35 -27 54 -27q31 0 65 53l45 -53q-16 -41 -47.5 -72.5t-68.5 -31.5q-33 0 -72 33q-31 27 -52 27q-34 0 -65 -55zM257 303h172l-85 251z" />
<glyph unicode="&#xc4;" horiz-adv-x="688" d="M-5 0l271 706h160l267 -706h-154l-61 174h-267l-62 -174h-154zM177 839q0 31 18.5 50t50.5 19t50.5 -19t18.5 -50t-18.5 -50t-50.5 -19t-50.5 19t-18.5 50zM257 303h172l-85 251zM377 839q0 31 18.5 50t50.5 19t50.5 -19t18.5 -50t-18.5 -50t-50.5 -19t-50.5 19t-18.5 50 z" />
<glyph unicode="&#xc5;" horiz-adv-x="688" d="M-5 0l271 706h160l267 -706h-154l-61 174h-267l-62 -174h-154zM240 840q0 45 31 75.5t76 30.5t75.5 -31t30.5 -75q0 -45 -30.5 -76t-75.5 -31q-46 0 -76.5 31t-30.5 76zM257 303h172l-85 251zM303 839q0 -19 12 -31t31 -12t31.5 12t12.5 31t-12.5 31.5t-31.5 12.5 t-31 -12.5t-12 -31.5z" />
<glyph unicode="&#xc6;" horiz-adv-x="978" d="M27 0l330 706h589v-134h-358v-146h248v-134h-248v-158h329v-134h-477v210h-156l-99 -210h-158zM339 341h101v221z" />
<glyph unicode="&#xc7;" horiz-adv-x="733" d="M32 351q0 119 49 203.5t126 123t174 38.5q115 0 202.5 -55.5t119.5 -151.5l-139 -65q-22 69 -72.5 104.5t-114.5 35.5q-36 0 -68.5 -11.5t-62 -36.5t-47 -72t-17.5 -110t17.5 -110t46.5 -72t61.5 -36.5t68.5 -11.5q107 0 177 106l125 -90q-97 -145 -289 -148l-5 -27 q81 -18 81 -77q0 -47 -49 -79q-44 -29 -105 -35l-22 68q78 1 78 45q0 34 -58 44l13 65q-131 17 -210.5 107.5t-79.5 247.5z" />
<glyph unicode="&#xc8;" horiz-adv-x="593" d="M55 0v706h506v-134h-358v-146h248v-134h-248v-158h329v-134h-477zM172 931h147l125 -184h-106z" />
<glyph unicode="&#xc9;" horiz-adv-x="593" d="M55 0v706h506v-134h-358v-146h248v-134h-248v-158h329v-134h-477zM172 747l125 184h147l-166 -184h-106z" />
<glyph unicode="&#xca;" horiz-adv-x="593" d="M55 0v706h506v-134h-358v-146h248v-134h-248v-158h329v-134h-477zM129 747l125 184h109l125 -184h-107l-73 87l-72 -87h-107z" />
<glyph unicode="&#xcb;" horiz-adv-x="593" d="M55 0v706h506v-134h-358v-146h248v-134h-248v-158h329v-134h-477zM139 839q0 31 18.5 50t50.5 19t50.5 -19t18.5 -50t-18.5 -50t-50.5 -19t-50.5 19t-18.5 50zM339 839q0 31 18.5 50t50.5 19t50.5 -19t18.5 -50t-18.5 -50t-50.5 -19t-50.5 19t-18.5 50z" />
<glyph unicode="&#xcc;" horiz-adv-x="258" d="M-7 931h147l125 -184h-106zM55 0v706h148v-706h-148z" />
<glyph unicode="&#xcd;" horiz-adv-x="258" d="M-7 747l125 184h147l-166 -184h-106zM55 0v706h148v-706h-148z" />
<glyph unicode="&#xce;" horiz-adv-x="258" d="M-50 747l125 184h109l125 -184h-107l-73 87l-72 -87h-107zM55 0v706h148v-706h-148z" />
<glyph unicode="&#xcf;" horiz-adv-x="258" d="M-40 839q0 31 19 50t50 19t50 -19t19 -50t-19 -50t-50 -19t-50 19t-19 50zM55 0v706h148v-706h-148zM160 839q0 31 19 50t50 19t50 -19t19 -50t-19 -50t-50 -19t-50 19t-19 50z" />
<glyph unicode="&#xd0;" horiz-adv-x="722" d="M-7 305v117h75v284h256q160 0 251 -88q92 -89 92 -255q0 -165 -91 -264t-253 -99h-255v305h-75zM216 134h105q196 0 196 221q0 111 -51.5 164t-158.5 53h-91v-150h130v-117h-130v-171z" />
<glyph unicode="&#xd1;" horiz-adv-x="703" d="M55 0v706h142l305 -453v453h146v-706h-141l-306 451v-451h-146zM176 816q17 41 48 73t67 32q28 0 71 -33q35 -27 54 -27q31 0 65 53l45 -53q-16 -41 -47.5 -72.5t-68.5 -31.5q-33 0 -72 33q-31 27 -52 27q-34 0 -65 -55z" />
<glyph unicode="&#xd2;" horiz-adv-x="759" d="M39 352q0 77 21.5 140t56.5 103.5t80.5 68.5t91 40t90.5 12q58 0 115 -20.5t109 -61t84.5 -114t32.5 -168.5t-32.5 -167.5t-84.5 -113t-109 -60t-115 -19.5q-45 0 -90.5 11.5t-91 39t-80.5 67.5t-56.5 102.5t-21.5 139.5zM189 354q0 -63 17.5 -110.5t47 -72t61 -36 t64.5 -11.5q27 0 52 6.5t51 23.5t45 42t31 66t12 92t-12 92t-31 66t-45 42t-51 23.5t-52 6.5q-33 0 -64.5 -11.5t-61 -36t-47 -72t-17.5 -110.5zM243 931h147l125 -184h-106z" />
<glyph unicode="&#xd3;" horiz-adv-x="759" d="M39 352q0 77 21.5 140t56.5 103.5t80.5 68.5t91 40t90.5 12q58 0 115 -20.5t109 -61t84.5 -114t32.5 -168.5t-32.5 -167.5t-84.5 -113t-109 -60t-115 -19.5q-45 0 -90.5 11.5t-91 39t-80.5 67.5t-56.5 102.5t-21.5 139.5zM189 354q0 -63 17.5 -110.5t47 -72t61 -36 t64.5 -11.5q27 0 52 6.5t51 23.5t45 42t31 66t12 92t-12 92t-31 66t-45 42t-51 23.5t-52 6.5q-33 0 -64.5 -11.5t-61 -36t-47 -72t-17.5 -110.5zM243 747l125 184h147l-166 -184h-106z" />
<glyph unicode="&#xd4;" horiz-adv-x="759" d="M39 352q0 77 21.5 140t56.5 103.5t80.5 68.5t91 40t90.5 12q58 0 115 -20.5t109 -61t84.5 -114t32.5 -168.5t-32.5 -167.5t-84.5 -113t-109 -60t-115 -19.5q-45 0 -90.5 11.5t-91 39t-80.5 67.5t-56.5 102.5t-21.5 139.5zM189 354q0 -63 17.5 -110.5t47 -72t61 -36 t64.5 -11.5q27 0 52 6.5t51 23.5t45 42t31 66t12 92t-12 92t-31 66t-45 42t-51 23.5t-52 6.5q-33 0 -64.5 -11.5t-61 -36t-47 -72t-17.5 -110.5zM200 747l125 184h109l125 -184h-107l-73 87l-72 -87h-107z" />
<glyph unicode="&#xd5;" horiz-adv-x="759" d="M39 352q0 77 21.5 140t56.5 103.5t80.5 68.5t91 40t90.5 12q58 0 115 -20.5t109 -61t84.5 -114t32.5 -168.5t-32.5 -167.5t-84.5 -113t-109 -60t-115 -19.5q-45 0 -90.5 11.5t-91 39t-80.5 67.5t-56.5 102.5t-21.5 139.5zM189 354q0 -63 17.5 -110.5t47 -72t61 -36 t64.5 -11.5q27 0 52 6.5t51 23.5t45 42t31 66t12 92t-12 92t-31 66t-45 42t-51 23.5t-52 6.5q-33 0 -64.5 -11.5t-61 -36t-47 -72t-17.5 -110.5zM204 816q17 41 48 73t67 32q28 0 71 -33q35 -27 54 -27q31 0 65 53l45 -53q-16 -41 -47.5 -72.5t-68.5 -31.5q-33 0 -72 33 q-31 27 -52 27q-34 0 -65 -55z" />
<glyph unicode="&#xd6;" horiz-adv-x="759" d="M39 352q0 77 21.5 140t56.5 103.5t80.5 68.5t91 40t90.5 12q58 0 115 -20.5t109 -61t84.5 -114t32.5 -168.5t-32.5 -167.5t-84.5 -113t-109 -60t-115 -19.5q-45 0 -90.5 11.5t-91 39t-80.5 67.5t-56.5 102.5t-21.5 139.5zM189 354q0 -63 17.5 -110.5t47 -72t61 -36 t64.5 -11.5q27 0 52 6.5t51 23.5t45 42t31 66t12 92t-12 92t-31 66t-45 42t-51 23.5t-52 6.5q-33 0 -64.5 -11.5t-61 -36t-47 -72t-17.5 -110.5zM210 839q0 31 19 50t50 19t50 -19t19 -50t-19 -50t-50 -19t-50 19t-19 50zM410 839q0 31 19 50t50 19t50 -19t19 -50t-19 -50 t-50 -19t-50 19t-19 50z" />
<glyph unicode="&#xd7;" horiz-adv-x="517" d="M39 140l145 145l-145 144l75 75l144 -144l145 144l75 -75l-144 -145l144 -144l-75 -75l-144 145l-145 -145z" />
<glyph unicode="&#xd8;" horiz-adv-x="700" d="M10 352q0 77 21.5 140t56.5 103.5t80.5 68.5t91 40t90.5 12q71 0 138 -29l26 44h116l-57 -96q118 -101 118 -283q0 -95 -32.5 -167.5t-84.5 -113t-109 -60t-115 -19.5q-70 0 -138 28l-26 -45h-116l57 97q-117 96 -117 280zM160 354q0 -98 41 -155l219 372q-35 13 -70 13 q-33 0 -64.5 -11.5t-61 -36t-47 -72t-17.5 -110.5zM281 136q31 -12 69 -12q27 0 52 6.5t51 23.5t45 42t31 66t12 92q0 95 -42 155z" />
<glyph unicode="&#xd9;" horiz-adv-x="694" d="M55 292v414h148v-406q0 -82 39.5 -129t109.5 -47q139 0 139 176v406h148v-414q0 -144 -74 -222t-213 -78t-218 80t-79 220zM210 931h147l125 -184h-106z" />
<glyph unicode="&#xda;" horiz-adv-x="694" d="M55 292v414h148v-406q0 -82 39.5 -129t109.5 -47q139 0 139 176v406h148v-414q0 -144 -74 -222t-213 -78t-218 80t-79 220zM235 747l125 184h147l-166 -184h-106z" />
<glyph unicode="&#xdb;" horiz-adv-x="694" d="M55 292v414h148v-406q0 -82 39.5 -129t109.5 -47q139 0 139 176v406h148v-414q0 -144 -74 -222t-213 -78t-218 80t-79 220zM168 747l125 184h109l125 -184h-107l-73 87l-72 -87h-107z" />
<glyph unicode="&#xdc;" horiz-adv-x="694" d="M55 292v414h148v-406q0 -82 39.5 -129t109.5 -47q139 0 139 176v406h148v-414q0 -144 -74 -222t-213 -78t-218 80t-79 220zM178 839q0 31 19 50t50 19t50 -19t19 -50t-19 -50t-50 -19t-50 19t-19 50zM378 839q0 31 19 50t50 19t50 -19t19 -50t-19 -50t-50 -19t-50 19 t-19 50z" />
<glyph unicode="&#xdd;" horiz-adv-x="664" d="M-2 706h169l166 -256l177 256h156l-260 -386v-320h-148v320zM196 747l125 184h147l-166 -184h-106z" />
<glyph unicode="&#xde;" horiz-adv-x="604" d="M55 0v706h148v-109h103q126 0 199 -59.5t73 -171.5q0 -119 -71 -175.5t-201 -56.5h-103v-134h-148zM203 268h110q120 0 120 98q0 97 -120 97h-110v-195z" />
<glyph unicode="&#xdf;" horiz-adv-x="605" d="M68 0v491q0 109 60.5 172t176.5 63q44 0 83.5 -9.5t74.5 -28.5t55.5 -54.5t20.5 -82.5q0 -90 -66 -137q-4 -3 -13 -9q-44 -32 -47 -42q-1 -2 -1 -4q0 -15 49 -39q59 -29 93 -66t34 -98q0 -77 -55.5 -120.5t-128.5 -43.5q-109 0 -168 105l118 60q18 -46 49 -46 q18 0 30.5 11.5t12.5 29.5q0 15 -11.5 28t-22 19t-31.5 16q-64 31 -89.5 62t-25.5 75q0 45 22 72.5t68 55.5q44 26 44 63q0 30 -24 46t-64 16q-50 0 -77 -24t-27 -67v-514h-140z" />
<glyph unicode="&#xe0;" horiz-adv-x="483" d="M16 338q1 6 6.5 18t21 31.5t38 36t61.5 28.5t87 12q89 0 144 -40t55 -124v-172q0 -22 19 -22q11 0 22 4v-110q-25 -4 -56 -4q-46 0 -73 16t-36 55q-1 -5 -4 -11t-12.5 -18.5t-22.5 -21.5t-36.5 -16.5t-53.5 -7.5q-69 0 -112.5 35t-43.5 96q0 51 37.5 83t126.5 49l42 8 q34 6 48 15.5t14 27.5q0 39 -64 39q-30 0 -50 -11.5t-27 -22.5t-14 -28zM106 707h147l125 -184h-106zM163 140q0 -19 14 -29t37 -10q74 0 74 104q-9 -9 -68 -23q-30 -7 -43.5 -15.5t-13.5 -26.5z" />
<glyph unicode="&#xe1;" horiz-adv-x="483" d="M16 338q1 6 6.5 18t21 31.5t38 36t61.5 28.5t87 12q89 0 144 -40t55 -124v-172q0 -22 19 -22q11 0 22 4v-110q-25 -4 -56 -4q-46 0 -73 16t-36 55q-1 -5 -4 -11t-12.5 -18.5t-22.5 -21.5t-36.5 -16.5t-53.5 -7.5q-69 0 -112.5 35t-43.5 96q0 51 37.5 83t126.5 49l42 8 q34 6 48 15.5t14 27.5q0 39 -64 39q-30 0 -50 -11.5t-27 -22.5t-14 -28zM106 523l125 184h147l-166 -184h-106zM163 140q0 -19 14 -29t37 -10q74 0 74 104q-9 -9 -68 -23q-30 -7 -43.5 -15.5t-13.5 -26.5z" />
<glyph unicode="&#xe2;" horiz-adv-x="483" d="M16 338q1 6 6.5 18t21 31.5t38 36t61.5 28.5t87 12q89 0 144 -40t55 -124v-172q0 -22 19 -22q11 0 22 4v-110q-25 -4 -56 -4q-46 0 -73 16t-36 55q-1 -5 -4 -11t-12.5 -18.5t-22.5 -21.5t-36.5 -16.5t-53.5 -7.5q-69 0 -112.5 35t-43.5 96q0 51 37.5 83t126.5 49l42 8 q34 6 48 15.5t14 27.5q0 39 -64 39q-30 0 -50 -11.5t-27 -22.5t-14 -28zM63 523l125 184h109l125 -184h-107l-73 87l-72 -87h-107zM163 140q0 -19 14 -29t37 -10q74 0 74 104q-9 -9 -68 -23q-30 -7 -43.5 -15.5t-13.5 -26.5z" />
<glyph unicode="&#xe3;" horiz-adv-x="483" d="M16 338q1 6 6.5 18t21 31.5t38 36t61.5 28.5t87 12q89 0 144 -40t55 -124v-172q0 -22 19 -22q11 0 22 4v-110q-25 -4 -56 -4q-46 0 -73 16t-36 55q-1 -5 -4 -11t-12.5 -18.5t-22.5 -21.5t-36.5 -16.5t-53.5 -7.5q-69 0 -112.5 35t-43.5 96q0 51 37.5 83t126.5 49l42 8 q34 6 48 15.5t14 27.5q0 39 -64 39q-30 0 -50 -11.5t-27 -22.5t-14 -28zM67 597q17 41 48 73t67 32q28 0 71 -33q35 -27 54 -27q31 0 65 53l45 -53q-16 -41 -47.5 -72.5t-68.5 -31.5q-33 0 -72 33q-31 27 -52 27q-34 0 -65 -55zM163 140q0 -19 14 -29t37 -10q74 0 74 104 q-9 -9 -68 -23q-30 -7 -43.5 -15.5t-13.5 -26.5z" />
<glyph unicode="&#xe4;" horiz-adv-x="483" d="M16 338q1 6 6.5 18t21 31.5t38 36t61.5 28.5t87 12q89 0 144 -40t55 -124v-172q0 -22 19 -22q11 0 22 4v-110q-25 -4 -56 -4q-46 0 -73 16t-36 55q-1 -5 -4 -11t-12.5 -18.5t-22.5 -21.5t-36.5 -16.5t-53.5 -7.5q-69 0 -112.5 35t-43.5 96q0 51 37.5 83t126.5 49l42 8 q34 6 48 15.5t14 27.5q0 39 -64 39q-30 0 -50 -11.5t-27 -22.5t-14 -28zM73 603q0 31 18.5 50t50.5 19t50.5 -19t18.5 -50t-18.5 -50t-50.5 -19t-50.5 19t-18.5 50zM163 140q0 -19 14 -29t37 -10q74 0 74 104q-9 -9 -68 -23q-30 -7 -43.5 -15.5t-13.5 -26.5zM273 603 q0 31 18.5 50t50.5 19t50.5 -19t18.5 -50t-18.5 -50t-50.5 -19t-50.5 19t-18.5 50z" />
<glyph unicode="&#xe5;" horiz-adv-x="483" d="M16 338q1 6 6.5 18t21 31.5t38 36t61.5 28.5t87 12q89 0 144 -40t55 -124v-172q0 -22 19 -22q11 0 22 4v-110q-25 -4 -56 -4q-46 0 -73 16t-36 55q-1 -5 -4 -11t-12.5 -18.5t-22.5 -21.5t-36.5 -16.5t-53.5 -7.5q-69 0 -112.5 35t-43.5 96q0 51 37.5 83t126.5 49l42 8 q34 6 48 15.5t14 27.5q0 39 -64 39q-30 0 -50 -11.5t-27 -22.5t-14 -28zM136 606q0 45 31 75.5t76 30.5t75.5 -31t30.5 -75q0 -45 -30.5 -76t-75.5 -31q-46 0 -76.5 31t-30.5 76zM163 140q0 -19 14 -29t37 -10q74 0 74 104q-9 -9 -68 -23q-30 -7 -43.5 -15.5t-13.5 -26.5z M199 605q0 -19 12 -31t31 -12t31.5 12t12.5 31t-12.5 31.5t-31.5 12.5t-31 -12.5t-12 -31.5z" />
<glyph unicode="&#xe6;" horiz-adv-x="732" d="M20 123q0 52 38 83.5t126 48.5l42 8q32 6 45.5 15.5t13.5 27.5q0 39 -57 39q-30 0 -50 -11.5t-27 -22.5t-14 -28l-117 55q1 6 6.5 18t21 31.5t37.5 36t61 28.5t87 12q91 0 140 -41q54 41 129 41q42 0 78.5 -13.5t69.5 -42t49.5 -83.5t9.5 -130h-284q3 -45 27 -64.5 t54 -19.5q49 0 68 48l121 -62q-24 -48 -75 -76.5t-117 -28.5q-108 0 -169 76q-7 -15 -21 -30t-49.5 -30.5t-82.5 -15.5q-74 0 -117.5 34.5t-43.5 96.5zM163 140q0 -39 50 -39q72 0 72 104q-10 -10 -65 -23q-30 -7 -43.5 -15.5t-13.5 -26.5zM425 281h156q1 29 -19.5 50 t-53.5 21q-32 0 -55 -20t-28 -51z" />
<glyph unicode="&#xe7;" horiz-adv-x="514" d="M27 230q0 45 15 85.5t44 74.5t78.5 54t112.5 20q167 0 214 -135l-128 -56q-18 72 -91 72q-31 0 -52.5 -13t-30.5 -34t-12.5 -37t-3.5 -32q0 -44 25 -81t77 -37q59 0 84 55l121 -61q-24 -51 -75.5 -81t-120.5 -32l-5 -27q81 -18 81 -77q0 -47 -49 -79q-44 -29 -105 -35 l-22 68q78 1 78 45q0 34 -58 44l13 66q-93 16 -141.5 83t-48.5 150z" />
<glyph unicode="&#xe8;" horiz-adv-x="506" d="M27 224q0 102 59.5 171.5t172.5 68.5q45 0 84.5 -13.5t75.5 -42t53 -83.5t10 -130h-314q8 -84 91 -84q57 0 78 48l121 -62q-25 -48 -77 -76.5t-124 -28.5q-110 0 -170 65t-60 167zM129 707h147l125 -184h-106zM168 281h186q1 29 -24 50t-66 21q-39 0 -64 -19.5t-32 -51.5 z" />
<glyph unicode="&#xe9;" horiz-adv-x="506" d="M27 224q0 102 59.5 171.5t172.5 68.5q45 0 84.5 -13.5t75.5 -42t53 -83.5t10 -130h-314q8 -84 91 -84q57 0 78 48l121 -62q-25 -48 -77 -76.5t-124 -28.5q-110 0 -170 65t-60 167zM129 523l125 184h147l-166 -184h-106zM168 281h186q1 29 -24 50t-66 21q-39 0 -64 -19.5 t-32 -51.5z" />
<glyph unicode="&#xea;" horiz-adv-x="506" d="M27 224q0 102 59.5 171.5t172.5 68.5q45 0 84.5 -13.5t75.5 -42t53 -83.5t10 -130h-314q8 -84 91 -84q57 0 78 48l121 -62q-25 -48 -77 -76.5t-124 -28.5q-110 0 -170 65t-60 167zM86 523l125 184h109l125 -184h-107l-73 87l-72 -87h-107zM168 281h186q1 29 -24 50 t-66 21q-39 0 -64 -19.5t-32 -51.5z" />
<glyph unicode="&#xeb;" horiz-adv-x="506" d="M27 224q0 102 59.5 171.5t172.5 68.5q45 0 84.5 -13.5t75.5 -42t53 -83.5t10 -130h-314q8 -84 91 -84q57 0 78 48l121 -62q-25 -48 -77 -76.5t-124 -28.5q-110 0 -170 65t-60 167zM96 603q0 31 19 50t50 19t50 -19t19 -50t-19 -50t-50 -19t-50 19t-19 50zM168 281h186 q1 29 -24 50t-66 21q-39 0 -64 -19.5t-32 -51.5zM296 603q0 31 19 50t50 19t50 -19t19 -50t-19 -50t-50 -19t-50 19t-19 50z" />
<glyph unicode="&#xec;" horiz-adv-x="229" d="M-22 707h147l125 -184h-106zM44 0v456h141v-456h-141z" />
<glyph unicode="&#xed;" horiz-adv-x="229" d="M-22 523l125 184h147l-166 -184h-106zM44 0v456h141v-456h-141z" />
<glyph unicode="&#xee;" horiz-adv-x="229" d="M-65 523l125 184h109l125 -184h-107l-73 87l-72 -87h-107zM44 0v456h141v-456h-141z" />
<glyph unicode="&#xef;" horiz-adv-x="229" d="M-55 603q0 31 18.5 50t50.5 19t50.5 -19t18.5 -50t-18.5 -50t-50.5 -19t-50.5 19t-18.5 50zM44 0v456h141v-456h-141zM145 603q0 31 18.5 50t50.5 19t50.5 -19t18.5 -50t-18.5 -50t-50.5 -19t-50.5 19t-18.5 50z" />
<glyph unicode="&#xf0;" horiz-adv-x="550" d="M39 234q0 98 60.5 166t163.5 68q45 0 82 -16q-19 64 -57 99l-59 -43l-51 63l31 22q-25 7 -60 7h-38v126h39q104 0 184 -43l71 51l47 -63l-51 -37q116 -113 116 -325q0 -144 -61.5 -230.5t-182.5 -86.5q-114 0 -174 72.5t-60 169.5zM189 233q0 -43 22 -79.5t67 -36.5 t67.5 36.5t22.5 79.5q0 39 -21 74.5t-69 35.5q-33 0 -54.5 -20.5t-28 -43t-6.5 -46.5z" />
<glyph unicode="&#xf1;" horiz-adv-x="507" d="M41 0v456h136v-67q5 25 36 50t93 25q160 0 160 -216v-248h-141v243q0 57 -15 79.5t-48 22.5q-80 0 -80 -101v-244h-141zM78 597q17 41 48 73t67 32q28 0 71 -33q35 -27 54 -27q31 0 65 53l45 -53q-16 -41 -47.5 -72.5t-68.5 -31.5q-33 0 -72 33q-31 27 -52 27 q-34 0 -65 -55z" />
<glyph unicode="&#xf2;" horiz-adv-x="545" d="M27 230q0 98 67.5 166t178.5 68q110 0 177.5 -68t67.5 -167q0 -42 -13 -81.5t-40.5 -75.5t-77 -58t-114.5 -22t-115 22t-77 58.5t-40.5 76t-13.5 81.5zM136 707h147l125 -184h-106zM173 227q0 -47 27.5 -81.5t72.5 -34.5t72 34.5t27 81.5q0 46 -25.5 82t-73.5 36 t-74 -36.5t-26 -81.5z" />
<glyph unicode="&#xf3;" horiz-adv-x="545" d="M27 230q0 98 67.5 166t178.5 68q110 0 177.5 -68t67.5 -167q0 -42 -13 -81.5t-40.5 -75.5t-77 -58t-114.5 -22t-115 22t-77 58.5t-40.5 76t-13.5 81.5zM136 523l125 184h147l-166 -184h-106zM173 227q0 -47 27.5 -81.5t72.5 -34.5t72 34.5t27 81.5q0 46 -25.5 82 t-73.5 36t-74 -36.5t-26 -81.5z" />
<glyph unicode="&#xf4;" horiz-adv-x="545" d="M27 230q0 98 67.5 166t178.5 68q110 0 177.5 -68t67.5 -167q0 -42 -13 -81.5t-40.5 -75.5t-77 -58t-114.5 -22t-115 22t-77 58.5t-40.5 76t-13.5 81.5zM93 523l125 184h109l125 -184h-107l-73 87l-72 -87h-107zM173 227q0 -47 27.5 -81.5t72.5 -34.5t72 34.5t27 81.5 q0 46 -25.5 82t-73.5 36t-74 -36.5t-26 -81.5z" />
<glyph unicode="&#xf5;" horiz-adv-x="545" d="M27 230q0 98 67.5 166t178.5 68q110 0 177.5 -68t67.5 -167q0 -42 -13 -81.5t-40.5 -75.5t-77 -58t-114.5 -22t-115 22t-77 58.5t-40.5 76t-13.5 81.5zM97 597q17 41 48 73t67 32q28 0 71 -33q35 -27 54 -27q31 0 65 53l45 -53q-16 -41 -47.5 -72.5t-68.5 -31.5 q-33 0 -72 33q-31 27 -52 27q-34 0 -65 -55zM173 227q0 -47 27.5 -81.5t72.5 -34.5t72 34.5t27 81.5q0 46 -25.5 82t-73.5 36t-74 -36.5t-26 -81.5z" />
<glyph unicode="&#xf6;" horiz-adv-x="545" d="M27 230q0 98 67.5 166t178.5 68q110 0 177.5 -68t67.5 -167q0 -42 -13 -81.5t-40.5 -75.5t-77 -58t-114.5 -22t-115 22t-77 58.5t-40.5 76t-13.5 81.5zM103 603q0 31 18.5 50t50.5 19t50.5 -19t18.5 -50t-18.5 -50t-50.5 -19t-50.5 19t-18.5 50zM173 227 q0 -47 27.5 -81.5t72.5 -34.5t72 34.5t27 81.5q0 46 -25.5 82t-73.5 36t-74 -36.5t-26 -81.5zM303 603q0 31 18.5 50t50.5 19t50.5 -19t18.5 -50t-18.5 -50t-50.5 -19t-50.5 19t-18.5 50z" />
<glyph unicode="&#xf7;" horiz-adv-x="553" d="M39 231v107h475v-107h-475zM201 106q0 32 21.5 54t53.5 22t54 -22t22 -54t-22 -54t-54 -22t-53.5 22t-21.5 54zM201 462q0 32 21.5 54t53.5 22t54 -22t22 -54t-22 -53.5t-54 -21.5t-53.5 21.5t-21.5 53.5z" />
<glyph unicode="&#xf8;" horiz-adv-x="528" d="M18 235q0 101 64.5 165t181.5 64q44 0 78 -9l17 27h119l-44 -73q75 -63 75 -174q0 -45 -13 -86t-40.5 -77t-77 -58t-114.5 -22q-38 0 -79 9l-17 -27h-117l45 74q-78 67 -78 187zM164 230q0 -30 9 -54l102 168q-3 1 -11 1q-54 0 -77 -35t-23 -80zM252 112q4 -1 12 -1 q46 0 72.5 34.5t26.5 85.5q0 23 -8 50z" />
<glyph unicode="&#xf9;" horiz-adv-x="507" d="M41 208v248h141v-243q0 -57 15 -79.5t48 -22.5q80 0 80 101v244h141v-456h-136v67q-5 -25 -36 -50t-93 -25q-160 0 -160 216zM117 707h147l125 -184h-106z" />
<glyph unicode="&#xfa;" horiz-adv-x="507" d="M41 208v248h141v-243q0 -57 15 -79.5t48 -22.5q80 0 80 101v244h141v-456h-136v67q-5 -25 -36 -50t-93 -25q-160 0 -160 216zM117 523l125 184h147l-166 -184h-106z" />
<glyph unicode="&#xfb;" horiz-adv-x="507" d="M41 208v248h141v-243q0 -57 15 -79.5t48 -22.5q80 0 80 101v244h141v-456h-136v67q-5 -25 -36 -50t-93 -25q-160 0 -160 216zM74 523l125 184h109l125 -184h-107l-73 87l-72 -87h-107z" />
<glyph unicode="&#xfc;" horiz-adv-x="507" d="M41 208v248h141v-243q0 -57 15 -79.5t48 -22.5q80 0 80 101v244h141v-456h-136v67q-5 -25 -36 -50t-93 -25q-160 0 -160 216zM84 603q0 31 19 50t50 19t50 -19t19 -50t-19 -50t-50 -19t-50 19t-19 50zM284 603q0 31 19 50t50 19t50 -19t19 -50t-19 -50t-50 -19t-50 19 t-19 50z" />
<glyph unicode="&#xfd;" horiz-adv-x="494" d="M7 456h150l88 -268l101 268h141l-265 -685h-138l94 247zM111 523l125 184h147l-166 -184h-106z" />
<glyph unicode="&#xfe;" horiz-adv-x="544" d="M45 -219v935h141v-328q7 31 35 53.5t84 22.5q89 0 152.5 -66t63.5 -165q0 -58 -21 -111t-70.5 -91.5t-117.5 -38.5q-54 0 -87.5 21.5t-38.5 46.5v-279h-141zM182 226q0 -115 95 -115q49 0 73.5 32t24.5 81q0 51 -26 86t-73 35q-41 0 -67.5 -28.5t-26.5 -90.5z" />
<glyph unicode="&#xff;" horiz-adv-x="494" d="M7 456h150l88 -268l101 268h141l-265 -685h-138l94 247zM78 603q0 31 19 50t50 19t50 -19t19 -50t-19 -50t-50 -19t-50 19t-19 50zM278 603q0 31 19 50t50 19t50 -19t19 -50t-19 -50t-50 -19t-50 19t-19 50z" />
<glyph unicode="&#x131;" horiz-adv-x="229" d="M44 0v456h141v-456h-141z" />
<glyph unicode="&#x141;" horiz-adv-x="541" d="M-7 183v144l66 44v335h148v-235l109 73v-143l-109 -74v-193h324v-134h-472v227z" />
<glyph unicode="&#x142;" horiz-adv-x="253" d="M-2 197v131l57 38v340h141v-245l59 40v-132l-59 -40v-329h-141v235z" />
<glyph unicode="&#x152;" horiz-adv-x="1062" d="M39 352q0 77 21.5 140t56.5 103.5t80.5 68.5t91 40t90.5 12q74 0 145 -36v26h506v-134h-358v-146h248v-134h-248v-158h329v-134h-477v25q-70 -33 -145 -33q-45 0 -90.5 11.5t-91 39t-80.5 67.5t-56.5 102.5t-21.5 139.5zM189 354q0 -63 17.5 -110.5t47 -72t61 -36 t64.5 -11.5q93 0 145 74v312q-52 74 -145 74q-33 0 -64.5 -11.5t-61 -36t-47 -72t-17.5 -110.5z" />
<glyph unicode="&#x153;" horiz-adv-x="795" d="M20 235q0 101 62 165t174 64q100 0 163 -55q58 55 146 55q42 0 78.5 -13.5t69.5 -42t49.5 -83.5t9.5 -130h-284q3 -45 26.5 -64.5t55.5 -19.5q48 0 67 48l121 -62q-24 -48 -75 -76.5t-116 -28.5q-93 0 -151 55q-62 -55 -161 -55q-63 0 -110 22t-73.5 58t-39 77t-12.5 86z M166 230q0 -50 24.5 -84.5t65.5 -34.5t65 34.5t24 85.5q0 45 -20.5 79.5t-68.5 34.5q-49 0 -69.5 -35t-20.5 -80zM488 281h156q1 29 -19.5 50t-53.5 21q-32 0 -55 -20t-28 -51z" />
<glyph unicode="&#x160;" horiz-adv-x="584" d="M22 181l142 57q48 -115 143 -115q39 0 65.5 17.5t26.5 52.5q0 62 -87 84l-100 26q-79 21 -124 73.5t-45 126.5q0 97 73.5 155t183.5 58q95 0 165.5 -46t96.5 -135l-138 -66q-11 55 -49 86t-88 31q-41 0 -70 -21t-29 -59q0 -55 67 -74l101 -29q188 -54 188 -209 q0 -95 -68.5 -148.5t-174.5 -53.5q-107 0 -177.5 53t-101.5 136zM113 931h107l72 -87l73 87h107l-125 -184h-109z" />
<glyph unicode="&#x161;" horiz-adv-x="437" d="M25 99l112 59q27 -52 86 -52q22 0 37.5 9t15.5 27q0 6 -1.5 10.5t-5.5 8t-8 6.5t-11 5.5t-11.5 4t-13.5 3.5t-14.5 2.5t-15.5 2t-14 2.5q-139 24 -139 133q0 70 53.5 107t137.5 37q146 0 187 -114l-108 -52q-9 30 -32.5 43.5t-49.5 13.5q-45 0 -45 -34q0 -15 12 -24.5 t25 -12.5t34 -7q5 -1 7 -1q156 -29 156 -141q0 -71 -58 -107t-138 -36q-69 0 -121 27.5t-77 79.5zM43 707h107l72 -87l73 87h107l-125 -184h-109z" />
<glyph unicode="&#x178;" horiz-adv-x="664" d="M-2 706h169l166 -256l177 256h156l-260 -386v-320h-148v320zM163 839q0 31 18.5 50t50.5 19t50.5 -19t18.5 -50t-18.5 -50t-50.5 -19t-50.5 19t-18.5 50zM363 839q0 31 18.5 50t50.5 19t50.5 -19t18.5 -50t-18.5 -50t-50.5 -19t-50.5 19t-18.5 50z" />
<glyph unicode="&#x17d;" horiz-adv-x="601" d="M24 572v134h554v-102l-351 -470h324v-134h-520v104l351 468h-358zM122 911h107l72 -87l73 87h107l-125 -184h-109z" />
<glyph unicode="&#x17e;" horiz-adv-x="443" d="M26 341v115h392v-93l-206 -248h203v-115h-371v98l202 243h-220zM43 707h107l72 -87l73 87h107l-125 -184h-109z" />
<glyph unicode="&#x192;" horiz-adv-x="396" d="M-73 -198l49 120q44 -28 69 -28q37 0 42 59l34 389h-73l9 114h73l14 152q7 82 53.5 123.5t123.5 41.5q53 0 122 -27l-49 -121q-44 28 -69 28q-37 0 -42 -58l-12 -139h92l-9 -114h-92l-36 -403q-7 -82 -53.5 -123.5t-123.5 -41.5q-54 0 -122 28z" />
<glyph unicode="&#x2c6;" horiz-adv-x="439" d="M40 523l125 184h109l125 -184h-107l-73 87l-72 -87h-107z" />
<glyph unicode="&#x2c7;" horiz-adv-x="447" d="M44 707h107l72 -87l73 87h107l-125 -184h-109z" />
<glyph unicode="&#x2d8;" horiz-adv-x="640" d="M156 681h98q20 -54 66 -54t66 54h99q-16 -67 -59 -107.5t-105 -40.5q-64 0 -107.5 42t-57.5 106z" />
<glyph unicode="&#x2d9;" horiz-adv-x="457" d="M156 611q0 32 20.5 52.5t52.5 20.5t52.5 -20.5t20.5 -52.5t-20.5 -52.5t-52.5 -20.5t-52.5 20.5t-20.5 52.5z" />
<glyph unicode="&#x2da;" horiz-adv-x="447" d="M117 636q0 45 31 75.5t76 30.5t75.5 -31t30.5 -75q0 -45 -30.5 -76t-75.5 -31q-46 0 -76.5 31t-30.5 76zM180 635q0 -19 12 -31t31 -12t31.5 12t12.5 31t-12.5 31.5t-31.5 12.5t-31 -12.5t-12 -31.5z" />
<glyph unicode="&#x2db;" horiz-adv-x="435" d="M126 -102q0 30 30.5 60.5t79.5 41.5h73q-53 -30 -70 -57q-13 -19 -13 -41q0 -35 63 -59l-29 -61q-60 19 -91 42q-43 33 -43 74z" />
<glyph unicode="&#x2dc;" horiz-adv-x="492" d="M71 597q17 41 48 73t67 32q28 0 71 -33q35 -27 54 -27q31 0 65 53l45 -53q-16 -41 -47.5 -72.5t-68.5 -31.5q-33 0 -72 33q-31 27 -52 27q-34 0 -65 -55z" />
<glyph unicode="&#x2dd;" horiz-adv-x="461" d="M26 523l125 184h137l-166 -184h-96zM196 523l125 184h137l-166 -184h-96z" />
<glyph unicode="&#x3c0;" d="M65 372q0 50 2 79t10 55t20 38t37.5 21t56 11t81.5 2t81.5 -2t56 -11t37 -21t20 -38t10 -55t1.5 -79t-1.5 -79t-10 -55.5t-20 -38t-37 -21t-56 -11.5t-81.5 -2t-81.5 2t-56 11t-37.5 21t-20 38t-10 55.5t-2 79.5zM122 323l32 -56l105 82l-19 -131h65l-20 131l105 -82 l32 56l-123 50l123 49l-32 56l-105 -82l19 131h-64l19 -131l-105 81l-32 -56l123 -48z" />
<glyph unicode="&#x2013;" horiz-adv-x="565" d="M39 205v131h487v-131h-487z" />
<glyph unicode="&#x2014;" horiz-adv-x="771" d="M39 205v131h693v-131h-693z" />
<glyph unicode="&#x2018;" horiz-adv-x="253" d="M41 513q0 81 93 222l65 -28q-36 -56 -31 -120q52 -24 52 -83q0 -37 -24.5 -62.5t-64.5 -25.5t-65 26.5t-25 70.5z" />
<glyph unicode="&#x2019;" horiz-adv-x="253" d="M33 628q0 37 24.5 62.5t64.5 25.5t65 -26.5t25 -70.5q0 -81 -93 -222l-65 28q36 56 31 120q-52 24 -52 83z" />
<glyph unicode="&#x201a;" horiz-adv-x="253" d="M33 82q0 37 24.5 62.5t64.5 25.5t65 -26.5t25 -70.5q0 -81 -93 -222l-65 28q36 56 31 120q-52 24 -52 83z" />
<glyph unicode="&#x201c;" horiz-adv-x="473" d="M41 513q0 81 93 222l65 -28q-36 -56 -31 -120q52 -24 52 -83q0 -37 -24.5 -62.5t-64.5 -25.5t-65 26.5t-25 70.5zM261 513q0 81 93 222l65 -28q-36 -56 -31 -120q52 -24 52 -83q0 -37 -24.5 -62.5t-64.5 -25.5t-65 26.5t-25 70.5z" />
<glyph unicode="&#x201d;" horiz-adv-x="473" d="M33 628q0 37 24.5 62.5t64.5 25.5t65 -26.5t25 -70.5q0 -81 -93 -222l-65 28q36 56 31 120q-52 24 -52 83zM253 628q0 37 24.5 62.5t64.5 25.5t65 -26.5t25 -70.5q0 -81 -93 -222l-65 28q36 56 31 120q-52 24 -52 83z" />
<glyph unicode="&#x201e;" horiz-adv-x="473" d="M33 82q0 37 24.5 62.5t64.5 25.5t65 -26.5t25 -70.5q0 -81 -93 -222l-65 28q36 56 31 120q-52 24 -52 83zM253 82q0 37 24.5 62.5t64.5 25.5t65 -26.5t25 -70.5q0 -81 -93 -222l-65 28q36 56 31 120q-52 24 -52 83z" />
<glyph unicode="&#x2020;" horiz-adv-x="576" d="M33 431v138l185 -9v206h140v-206l185 9v-138l-185 10l-10 -620h-121l-9 620z" />
<glyph unicode="&#x2021;" horiz-adv-x="566" d="M33 25v137l186 -9l8 144l-8 144l-186 -10v138l185 -9v206h140v-206l185 9v-138l-186 10l-9 -144l9 -144l186 9v-137l-185 9v-213h-140v213z" />
<glyph unicode="&#x2022;" horiz-adv-x="404" d="M45 364q0 71 43 114t114 43t114 -43t43 -114q0 -70 -43.5 -113.5t-113.5 -43.5t-113.5 43.5t-43.5 113.5z" />
<glyph unicode="&#x2026;" horiz-adv-x="768" d="M45 81q0 40 24.5 64.5t64.5 24.5t64.5 -24.5t24.5 -64.5t-24.5 -64.5t-64.5 -24.5t-64.5 24.5t-24.5 64.5zM295 81q0 40 24.5 64.5t64.5 24.5t64.5 -24.5t24.5 -64.5t-24.5 -64.5t-64.5 -24.5t-64.5 24.5t-24.5 64.5zM545 81q0 40 24.5 64.5t64.5 24.5t64.5 -24.5 t24.5 -64.5t-24.5 -64.5t-64.5 -24.5t-64.5 24.5t-24.5 64.5z" />
<glyph unicode="&#x2030;" horiz-adv-x="1081" d="M39 558q0 66 43 111t112 45q70 0 113 -45t43 -111t-43 -111t-113 -45q-69 0 -112 45t-43 111zM88 0l446 706h109l-447 -706h-108zM141 558q0 -27 15.5 -46t37.5 -19q23 0 38 19t15 46t-15 46t-38 19q-22 0 -37.5 -19t-15.5 -46zM381 148q0 66 43 111t112 45q70 0 113 -45 t43 -111t-43 -111t-113 -45q-69 0 -112 45t-43 111zM483 148q0 -27 15.5 -46t37.5 -19q23 0 38 19t15 46t-15 46t-38 19q-22 0 -37.5 -19t-15.5 -46zM731 148q0 66 43 111t112 45q70 0 113 -45t43 -111t-43 -111t-113 -45q-69 0 -112 45t-43 111zM833 148q0 -27 15.5 -46 t37.5 -19q23 0 38 19t15 46t-15 46t-38 19q-22 0 -37.5 -19t-15.5 -46z" />
<glyph unicode="&#x2039;" horiz-adv-x="354" d="M45 266l144 177h132l-149 -177l149 -177h-132z" />
<glyph unicode="&#x203a;" horiz-adv-x="354" d="M33 89l149 177l-149 177h132l144 -177l-144 -177h-132z" />
<glyph unicode="&#x2044;" horiz-adv-x="319" d="M-118 0l446 706h109l-447 -706h-108z" />
<glyph unicode="&#x20ac;" horiz-adv-x="707" d="M4 239l25 94h58v16v22h-80l25 94h66q28 130 113.5 190.5t199.5 60.5q97 0 167.5 -42.5t98.5 -125.5l-142 -67q-33 103 -133 103q-115 0 -149 -119h257l-24 -94h-246v-20v-18h235l-24 -94h-198q32 -115 135 -115q95 0 130 104l142 -67q-31 -83 -103 -126t-166 -43 q-48 0 -91.5 12t-86 38.5t-73.5 77t-44 119.5h-92z" />
<glyph unicode="&#x2113;" horiz-adv-x="406" d="M14 201q39 36 80 77v258q0 102 42 160q39 54 102 54q53 0 84 -41.5t31 -113.5q0 -157 -159 -328v-66q0 -79 15 -107q15 -29 47 -29q39 0 87 55l37 -48q-60 -86 -147 -86q-68 0 -105 48q-33 43 -33 121v34q-16 -17 -48 -45zM194 363q85 113 85 233q0 80 -38 80 q-22 0 -34 -31q-13 -33 -13 -101v-181z" />
<glyph unicode="&#x2122;" horiz-adv-x="836" d="M10 625v81h333v-81h-124v-321h-85v321h-124zM384 304v402h92l105 -271l105 271h94v-402h-86v200l-76 -200h-72l-77 199v-199h-85z" />
<glyph unicode="&#x2126;" d="M65 372q0 50 2 79t10 55t20 38t37.5 21t56 11t81.5 2t81.5 -2t56 -11t37 -21t20 -38t10 -55t1.5 -79t-1.5 -79t-10 -55.5t-20 -38t-37 -21t-56 -11.5t-81.5 -2t-81.5 2t-56 11t-37.5 21t-20 38t-10 55.5t-2 79.5zM122 323l32 -56l105 82l-19 -131h65l-20 131l105 -82 l32 56l-123 50l123 49l-32 56l-105 -82l19 131h-64l19 -131l-105 81l-32 -56l123 -48z" />
<glyph unicode="&#x212e;" horiz-adv-x="736" d="M34 305q0 136 95 229q96 94 239 94q140 0 237 -84q98 -85 98 -212v-17q0 -13 -12 -14q-5 -1 -20 -1h-473q-20 0 -26 -3t-6 -11v-149q0 -59 73 -96q60 -30 134 -30q70 0 134 30.5t105 87.5l33 -7q-102 -139 -274 -139q-145 0 -242 94q-95 92 -95 228zM166 343 q0 -9 6.5 -12t25.5 -3h342q20 0 26 3t6 12v142q0 49 -59 82q-58 33 -144 33q-84 0 -143 -33q-60 -34 -60 -82v-142z" />
<glyph unicode="&#x2202;" horiz-adv-x="550" d="M39 238q0 100 60.5 170t163.5 70q45 0 82 -16q-43 138 -196 138h-38v126h39q96 0 168.5 -34t115 -93t63 -131t20.5 -155q0 -146 -61.5 -233.5t-182.5 -87.5q-114 0 -174 73.5t-60 172.5zM189 237q0 -45 22 -82.5t67 -37.5t67.5 38t22.5 82q0 42 -21 79t-69 37t-68.5 -37 t-20.5 -79z" />
<glyph unicode="&#x2206;" d="M65 372q0 50 2 79t10 55t20 38t37.5 21t56 11t81.5 2t81.5 -2t56 -11t37 -21t20 -38t10 -55t1.5 -79t-1.5 -79t-10 -55.5t-20 -38t-37 -21t-56 -11.5t-81.5 -2t-81.5 2t-56 11t-37.5 21t-20 38t-10 55.5t-2 79.5zM122 323l32 -56l105 82l-19 -131h65l-20 131l105 -82 l32 56l-123 50l123 49l-32 56l-105 -82l19 131h-64l19 -131l-105 81l-32 -56l123 -48z" />
<glyph unicode="&#x220f;" d="M65 372q0 50 2 79t10 55t20 38t37.5 21t56 11t81.5 2t81.5 -2t56 -11t37 -21t20 -38t10 -55t1.5 -79t-1.5 -79t-10 -55.5t-20 -38t-37 -21t-56 -11.5t-81.5 -2t-81.5 2t-56 11t-37.5 21t-20 38t-10 55.5t-2 79.5zM122 323l32 -56l105 82l-19 -131h65l-20 131l105 -82 l32 56l-123 50l123 49l-32 56l-105 -82l19 131h-64l19 -131l-105 81l-32 -56l123 -48z" />
<glyph unicode="&#x2211;" d="M65 372q0 50 2 79t10 55t20 38t37.5 21t56 11t81.5 2t81.5 -2t56 -11t37 -21t20 -38t10 -55t1.5 -79t-1.5 -79t-10 -55.5t-20 -38t-37 -21t-56 -11.5t-81.5 -2t-81.5 2t-56 11t-37.5 21t-20 38t-10 55.5t-2 79.5zM122 323l32 -56l105 82l-19 -131h65l-20 131l105 -82 l32 56l-123 50l123 49l-32 56l-105 -82l19 131h-64l19 -131l-105 81l-32 -56l123 -48z" />
<glyph unicode="&#x2212;" horiz-adv-x="553" d="M39 231v107h475v-107h-475z" />
<glyph unicode="&#x221a;" d="M65 372q0 50 2 79t10 55t20 38t37.5 21t56 11t81.5 2t81.5 -2t56 -11t37 -21t20 -38t10 -55t1.5 -79t-1.5 -79t-10 -55.5t-20 -38t-37 -21t-56 -11.5t-81.5 -2t-81.5 2t-56 11t-37.5 21t-20 38t-10 55.5t-2 79.5zM122 323l32 -56l105 82l-19 -131h65l-20 131l105 -82 l32 56l-123 50l123 49l-32 56l-105 -82l19 131h-64l19 -131l-105 81l-32 -56l123 -48z" />
<glyph unicode="&#x221e;" d="M65 372q0 50 2 79t10 55t20 38t37.5 21t56 11t81.5 2t81.5 -2t56 -11t37 -21t20 -38t10 -55t1.5 -79t-1.5 -79t-10 -55.5t-20 -38t-37 -21t-56 -11.5t-81.5 -2t-81.5 2t-56 11t-37.5 21t-20 38t-10 55.5t-2 79.5zM122 323l32 -56l105 82l-19 -131h65l-20 131l105 -82 l32 56l-123 50l123 49l-32 56l-105 -82l19 131h-64l19 -131l-105 81l-32 -56l123 -48z" />
<glyph unicode="&#x222b;" d="M65 372q0 50 2 79t10 55t20 38t37.5 21t56 11t81.5 2t81.5 -2t56 -11t37 -21t20 -38t10 -55t1.5 -79t-1.5 -79t-10 -55.5t-20 -38t-37 -21t-56 -11.5t-81.5 -2t-81.5 2t-56 11t-37.5 21t-20 38t-10 55.5t-2 79.5zM122 323l32 -56l105 82l-19 -131h65l-20 131l105 -82 l32 56l-123 50l123 49l-32 56l-105 -82l19 131h-64l19 -131l-105 81l-32 -56l123 -48z" />
<glyph unicode="&#x2248;" d="M65 372q0 50 2 79t10 55t20 38t37.5 21t56 11t81.5 2t81.5 -2t56 -11t37 -21t20 -38t10 -55t1.5 -79t-1.5 -79t-10 -55.5t-20 -38t-37 -21t-56 -11.5t-81.5 -2t-81.5 2t-56 11t-37.5 21t-20 38t-10 55.5t-2 79.5zM122 323l32 -56l105 82l-19 -131h65l-20 131l105 -82 l32 56l-123 50l123 49l-32 56l-105 -82l19 131h-64l19 -131l-105 81l-32 -56l123 -48z" />
<glyph unicode="&#x2260;" d="M65 372q0 50 2 79t10 55t20 38t37.5 21t56 11t81.5 2t81.5 -2t56 -11t37 -21t20 -38t10 -55t1.5 -79t-1.5 -79t-10 -55.5t-20 -38t-37 -21t-56 -11.5t-81.5 -2t-81.5 2t-56 11t-37.5 21t-20 38t-10 55.5t-2 79.5zM122 323l32 -56l105 82l-19 -131h65l-20 131l105 -82 l32 56l-123 50l123 49l-32 56l-105 -82l19 131h-64l19 -131l-105 81l-32 -56l123 -48z" />
<glyph unicode="&#x2264;" horiz-adv-x="524" d="M39 0v107h446v-107h-446zM39 303v77l446 155v-114l-251 -83l251 -75v-115z" />
<glyph unicode="&#x2265;" horiz-adv-x="524" d="M39 0v107h446v-107h-446zM39 148v115l251 75l-251 83v114l446 -155v-77z" />
<glyph unicode="&#x25ca;" d="M65 372q0 50 2 79t10 55t20 38t37.5 21t56 11t81.5 2t81.5 -2t56 -11t37 -21t20 -38t10 -55t1.5 -79t-1.5 -79t-10 -55.5t-20 -38t-37 -21t-56 -11.5t-81.5 -2t-81.5 2t-56 11t-37.5 21t-20 38t-10 55.5t-2 79.5zM122 323l32 -56l105 82l-19 -131h65l-20 131l105 -82 l32 56l-123 50l123 49l-32 56l-105 -82l19 131h-64l19 -131l-105 81l-32 -56l123 -48z" />
<glyph unicode="&#x25fc;" horiz-adv-x="455" d="M0 0v455h455v-455h-455z" />
<glyph unicode="&#xf8ff;" d="M65 372q0 50 2 79t10 55t20 38t37.5 21t56 11t81.5 2t81.5 -2t56 -11t37 -21t20 -38t10 -55t1.5 -79t-1.5 -79t-10 -55.5t-20 -38t-37 -21t-56 -11.5t-81.5 -2t-81.5 2t-56 11t-37.5 21t-20 38t-10 55.5t-2 79.5zM122 323l32 -56l105 82l-19 -131h65l-20 131l105 -82 l32 56l-123 50l123 49l-32 56l-105 -82l19 131h-64l19 -131l-105 81l-32 -56l123 -48z" />
<glyph horiz-adv-x="552" d="M32 228q0 105 73 170t171 65t171 -65t73 -170t-73 -170t-171 -65t-171 65t-73 170zM182 228q0 -50 28 -77t66 -27t66 27t28 77t-28 77t-66 27t-66 -27t-28 -77z" />
<glyph horiz-adv-x="371" d="M7 202v133q55 -1 107 37.5t71 83.5h113v-456h-148v261q-2 -7 -17 -20t-50 -26.5t-76 -12.5z" />
<glyph horiz-adv-x="489" d="M15 290q53 174 225 174q92 0 145 -46t53 -124q0 -52 -26 -85t-86 -70h118v-139h-397v116q127 61 185 104.5t58 77.5t-44 34q-65 0 -92 -108z" />
<glyph horiz-adv-x="531" d="M4 283q19 85 87 133t169 48q108 0 175 -52.5t67 -137.5q0 -36 -14.5 -66.5t-35.5 -48.5t-38 -28t-28 -12q13 -2 31 -11.5t39.5 -27t36 -49t14.5 -68.5q0 -84 -67.5 -138.5t-172.5 -54.5q-92 0 -160.5 47t-91.5 134l140 66q9 -57 40 -86t75 -29q38 0 62.5 18t24.5 54 q0 78 -127 78h-10v131h10q59 0 90.5 21.5t31.5 55.5q0 36 -25 54t-64 18q-97 0 -120 -116z" />
<glyph horiz-adv-x="569" d="M22 0v117l261 339h174v-325h85v-131h-85v-223h-141v223h-294zM170 131h146v189z" />
<glyph horiz-adv-x="553" d="M19 -68l139 65q3 -45 34 -70.5t74 -25.5q49 0 75.5 31.5t26.5 77.5q0 44 -25 71.5t-77 27.5q-78 0 -121 -55l-107 35l34 367h444v-139h-327l-14 -123q35 47 115 47q101 0 162.5 -62t61.5 -169t-64.5 -173t-185.5 -66q-97 0 -161 43.5t-84 117.5z" />
<glyph horiz-adv-x="563" d="M38 346q0 53 7 101.5t26 99t48 87t77.5 59.5t111.5 23q169 0 239 -153l-142 -65q-21 86 -104 86q-122 0 -124 -193q1 3 4 7.5t15 16.5t26.5 21t40.5 16.5t56 7.5q93 0 155 -63t62 -166q0 -105 -66 -172t-175 -67q-91 0 -150.5 51.5t-83 128t-23.5 174.5zM195 225 q0 -41 26.5 -71t67.5 -30t68.5 30.5t27.5 73.5q0 41 -25 71t-66 30q-42 0 -70.5 -30.5t-28.5 -73.5z" />
<glyph horiz-adv-x="497" d="M22 314v142h453v-113l-245 -572h-161l250 543h-297z" />
<glyph horiz-adv-x="577" d="M40 203q0 67 35 110.5t77 57.5q-97 50 -97 148q0 92 66.5 144.5t166.5 52.5t166.5 -53t66.5 -145q0 -100 -97 -147q46 -15 79.5 -60.5t33.5 -108.5q0 -99 -73 -154.5t-176 -55.5q-102 0 -175 55t-73 156zM188 211q0 -40 25 -65t75 -25t75 25t25 65q0 43 -28 68t-72 25 q-45 0 -72.5 -24.5t-27.5 -68.5zM203 503q2 -33 26 -52.5t60 -19.5t60 20t24 54q0 35 -22 58.5t-63 23.5q-43 0 -65 -24t-20 -60z" />
<glyph horiz-adv-x="558" d="M19 231q0 103 66 168t174 65q69 0 120.5 -28t80.5 -77.5t43 -109t14 -129.5q0 -50 -6.5 -95t-24 -93t-45.5 -82.5t-74.5 -56.5t-106.5 -22q-66 0 -121.5 26t-84.5 79l128 90q21 -63 85 -63q109 0 111 182q-1 -3 -4 -8.5t-15 -19t-26.5 -24t-41.5 -19t-58 -8.5 q-90 0 -152 62t-62 163zM170 230q0 -39 24.5 -66t65.5 -27q42 0 71 28.5t29 69.5q0 40 -26 68.5t-67 28.5q-42 0 -69.5 -30t-27.5 -72z" />
<glyph horiz-adv-x="534" d="M27 232q0 98 63.5 165t176.5 67t176.5 -67t63.5 -165q0 -61 -24 -114t-80.5 -89.5t-135.5 -36.5t-135.5 36.5t-80.5 89.5t-24 114zM139 230q0 -55 32 -101.5t96 -46.5t96 46.5t32 101.5q0 22 -6 45t-19.5 46.5t-40 38t-62.5 14.5t-62.5 -14.5t-40 -38t-19.5 -46.5t-6 -45 zM308 603q0 27 16 43t43 16t43 -16t16 -43t-16 -43t-43 -16t-43 16t-16 43z" />
</font>
</defs>
</svg>
